<svg width="24" height="24" viewBox="0 0 24 24" fill="none" xmlns="http://www.w3.org/2000/svg">
<path d="M17.7622 23.9999C9.63124 24.2749 -5.01674 9.74492 1.78425 1.86691L2.93425 0.866914C3.51637 0.304179 4.29666 -0.00670868 5.10627 0.00152591C5.91588 0.0097605 6.68969 0.336455 7.26024 0.910914C7.29108 0.942318 7.31981 0.975724 7.34624 1.01091L9.14624 3.34991C9.69326 3.92875 9.9972 4.69549 9.99534 5.49191C9.99348 6.28833 9.68596 7.05364 9.13624 7.62991L7.97824 9.08592C8.61936 10.643 9.56166 12.0581 10.7511 13.2501C11.9405 14.4421 13.3536 15.3874 14.9092 16.0319L16.3732 14.8669C16.957 14.3308 17.7204 14.0328 18.5131 14.0317C19.3057 14.0305 20.07 14.3264 20.6552 14.8609L22.9952 16.6609C23.0302 16.6873 23.0636 16.7157 23.0952 16.7459C23.6723 17.3283 23.9961 18.115 23.9961 18.9349C23.9961 19.7548 23.6723 20.5415 23.0952 21.1239L22.1842 22.1739C21.6064 22.7581 20.9174 23.2206 20.1579 23.5342C19.3985 23.8478 18.5839 24.0062 17.7622 23.9999ZM5.07125 1.99991C4.92754 1.9998 4.78522 2.02801 4.65241 2.08291C4.51961 2.13782 4.39892 2.21835 4.29725 2.31991L3.14625 3.31991C-2.49975 10.1079 14.7772 26.4229 20.7202 20.8079L21.6322 19.7569C21.7406 19.6604 21.8289 19.5434 21.8919 19.4127C21.9549 19.2819 21.9914 19.14 21.9993 18.9951C22.0072 18.8502 21.9863 18.7051 21.9379 18.5683C21.8895 18.4315 21.8145 18.3056 21.7172 18.1979L19.3902 16.4109C19.3546 16.3847 19.3211 16.3556 19.2902 16.3239C19.0816 16.1251 18.8044 16.0142 18.5162 16.0142C18.228 16.0142 17.9509 16.1251 17.7422 16.3239C17.7157 16.3508 17.6876 16.3762 17.6582 16.3999L15.7002 17.9599C15.5643 18.0681 15.4025 18.139 15.2309 18.1657C15.0592 18.1923 14.8836 18.1738 14.7212 18.1119C12.7054 17.3609 10.8745 16.1855 9.35254 14.6651C7.83063 13.1447 6.65328 11.315 5.90024 9.29992C5.83358 9.13528 5.81197 8.95587 5.83763 8.78012C5.86329 8.60436 5.93529 8.43861 6.04624 8.29992L7.60024 6.34391C7.62336 6.31429 7.64841 6.28622 7.67524 6.25991C7.87951 6.0539 7.99412 5.77553 7.99412 5.48541C7.99412 5.1953 7.87951 4.91693 7.67524 4.71091C7.64408 4.67982 7.61533 4.64639 7.58924 4.61091L5.80625 2.28691C5.60478 2.10488 5.34277 2.00436 5.07125 2.00491V1.99991ZM22.5642 12.5759C27.5542 5.23092 18.7642 -3.55009 11.4272 1.43891C11.3166 1.51279 11.2218 1.60799 11.1484 1.71896C11.075 1.82993 11.0245 1.95442 10.9999 2.08515C10.9752 2.21588 10.9768 2.35022 11.0047 2.4803C11.0326 2.61038 11.0862 2.73359 11.1623 2.8427C11.2385 2.95182 11.3356 3.04465 11.448 3.11575C11.5605 3.18686 11.686 3.23482 11.8172 3.25682C11.9484 3.27882 12.0826 3.27441 12.2121 3.24386C12.3416 3.21332 12.4637 3.15724 12.5712 3.07891C18.0452 -0.680086 24.6812 5.96291 20.9242 11.4329C20.8442 11.5404 20.7866 11.6628 20.7548 11.7929C20.723 11.9231 20.7177 12.0583 20.7392 12.1905C20.7607 12.3227 20.8085 12.4493 20.8798 12.5627C20.9512 12.6761 21.0446 12.774 21.1545 12.8506C21.2644 12.9272 21.3886 12.9809 21.5196 13.0086C21.6507 13.0363 21.786 13.0374 21.9175 13.0117C22.049 12.9861 22.174 12.9343 22.2851 12.8595C22.3962 12.7846 22.4911 12.6882 22.5642 12.5759ZM18.7062 10.7109C18.8937 10.5234 18.999 10.2691 18.999 10.0039C18.999 9.73875 18.8937 9.48444 18.7062 9.29692L17.0002 7.58991V4.99991C17.0002 4.7347 16.8949 4.48034 16.7073 4.29281C16.5198 4.10527 16.2654 3.99991 16.0002 3.99991C15.735 3.99991 15.4807 4.10527 15.2931 4.29281C15.1056 4.48034 15.0002 4.7347 15.0002 4.99991V7.99992C15.0003 8.26511 15.1057 8.51942 15.2932 8.70691L17.2932 10.7069C17.4808 10.8944 17.7351 10.9997 18.0002 10.9997C18.2654 10.9997 18.5197 10.8944 18.7072 10.7069L18.7062 10.7109Z" fill="#267485"/>
</svg>
