<svg width="30" height="30" viewBox="0 0 30 30" fill="none" xmlns="http://www.w3.org/2000/svg">
<g clip-path="url(#clip0_287_1423)">
<path d="M15 14.9999C16.4834 14.9999 17.9334 14.56 19.1668 13.7359C20.4001 12.9118 21.3614 11.7405 21.9291 10.37C22.4968 8.99956 22.6453 7.49156 22.3559 6.0367C22.0665 4.58185 21.3522 3.24547 20.3033 2.19658C19.2544 1.14769 17.918 0.433381 16.4632 0.143992C15.0083 -0.145397 13.5003 0.00312757 12.1299 0.570785C10.7594 1.13844 9.58809 2.09974 8.76398 3.3331C7.93987 4.56647 7.5 6.01652 7.5 7.49988C7.50199 9.4884 8.2928 11.3949 9.69889 12.801C11.105 14.2071 13.0115 14.9979 15 14.9999ZM15 2.49988C15.9889 2.49988 16.9556 2.79313 17.7779 3.34253C18.6001 3.89194 19.241 4.67283 19.6194 5.58646C19.9978 6.50009 20.0969 7.50543 19.9039 8.47533C19.711 9.44524 19.2348 10.3362 18.5355 11.0354C17.8363 11.7347 16.9454 12.2109 15.9755 12.4038C15.0055 12.5967 14.0002 12.4977 13.0866 12.1193C12.173 11.7408 11.3921 11.1 10.8427 10.2777C10.2932 9.45549 10 8.48879 10 7.49988C10 6.1738 10.5268 4.90203 11.4645 3.96435C12.4021 3.02667 13.6739 2.49988 15 2.49988Z" fill="#002534"/>
<path d="M15 17.5007C12.0173 17.504 9.15777 18.6904 7.0487 20.7994C4.93964 22.9085 3.75331 25.7681 3.75 28.7507C3.75 29.0823 3.8817 29.4002 4.11612 29.6346C4.35054 29.869 4.66848 30.0007 5 30.0007C5.33152 30.0007 5.64946 29.869 5.88388 29.6346C6.1183 29.4002 6.25 29.0823 6.25 28.7507C6.25 26.4301 7.17187 24.2045 8.81282 22.5635C10.4538 20.9226 12.6794 20.0007 15 20.0007C17.3206 20.0007 19.5462 20.9226 21.1872 22.5635C22.8281 24.2045 23.75 26.4301 23.75 28.7507C23.75 29.0823 23.8817 29.4002 24.1161 29.6346C24.3505 29.869 24.6685 30.0007 25 30.0007C25.3315 30.0007 25.6495 29.869 25.8839 29.6346C26.1183 29.4002 26.25 29.0823 26.25 28.7507C26.2467 25.7681 25.0604 22.9085 22.9513 20.7994C20.8422 18.6904 17.9827 17.504 15 17.5007Z" fill="#002534"/>
</g>
<defs>
<clipPath id="clip0_287_1423">
<rect width="30" height="30" fill="white"/>
</clipPath>
</defs>
</svg>
