<svg width="30" height="30" viewBox="0 0 30 30" fill="none" xmlns="http://www.w3.org/2000/svg">
<g clip-path="url(#clip0_287_1388)">
<path d="M21.8752 2.39563C20.4676 2.41752 19.0908 2.81045 17.8836 3.53472C16.6765 4.25899 15.6819 5.28897 15.0002 6.52063C14.3185 5.28897 13.3239 4.25899 12.1167 3.53472C10.9096 2.81045 9.53275 2.41752 8.12519 2.39563C5.88137 2.49312 3.76732 3.4747 2.24492 5.12592C0.722516 6.77714 -0.0844962 8.96379 0.000192004 11.2081C0.000192004 16.8919 5.98269 23.0994 11.0002 27.3081C12.1205 28.2495 13.5369 28.7657 15.0002 28.7657C16.4635 28.7657 17.8799 28.2495 19.0002 27.3081C24.0177 23.0994 30.0002 16.8919 30.0002 11.2081C30.0849 8.96379 29.2779 6.77714 27.7555 5.12592C26.2331 3.4747 24.119 2.49312 21.8752 2.39563ZM17.3939 25.3956C16.7239 25.9599 15.8761 26.2693 15.0002 26.2693C14.1243 26.2693 13.2765 25.9599 12.6064 25.3956C6.18394 20.0069 2.50019 14.8369 2.50019 11.2081C2.41474 9.62652 2.95815 8.07529 4.0119 6.89275C5.06564 5.71022 6.54423 4.99232 8.12519 4.89563C9.70615 4.99232 11.1847 5.71022 12.2385 6.89275C13.2922 8.07529 13.8356 9.62652 13.7502 11.2081C13.7502 11.5397 13.8819 11.8576 14.1163 12.092C14.3507 12.3264 14.6687 12.4581 15.0002 12.4581C15.3317 12.4581 15.6497 12.3264 15.8841 12.092C16.1185 11.8576 16.2502 11.5397 16.2502 11.2081C16.1647 9.62652 16.7081 8.07529 17.7619 6.89275C18.8156 5.71022 20.2942 4.99232 21.8752 4.89563C23.4562 4.99232 24.9347 5.71022 25.9885 6.89275C27.0422 8.07529 27.5856 9.62652 27.5002 11.2081C27.5002 14.8369 23.8164 20.0069 17.3939 25.3906V25.3956Z" fill="#002534"/>
</g>
<defs>
<clipPath id="clip0_287_1388">
<rect width="30" height="30" fill="white"/>
</clipPath>
</defs>
</svg>
