<svg width="24" height="24" viewBox="0 0 24 24" fill="none" xmlns="http://www.w3.org/2000/svg">
<g clip-path="url(#clip0_219_336)">
<path d="M23 11C22.7348 11 22.4804 11.1054 22.2929 11.2929C22.1053 11.4804 22 11.7348 22 12C22.0081 14.3253 21.2084 16.5812 19.7375 18.3822C18.2666 20.1831 16.2159 21.4173 13.9359 21.8738C11.6558 22.3303 9.28801 21.9807 7.23715 20.8849C5.18629 19.789 3.57971 18.0148 2.692 15.8657C1.80429 13.7165 1.69058 11.3257 2.37028 9.10201C3.04999 6.87828 4.48093 4.95966 6.41852 3.67407C8.3561 2.38849 10.68 1.81575 12.9931 2.05377C15.3062 2.29179 17.4648 3.32578 19.1 4.979C19.0671 4.98797 19.0337 4.99498 19 5H16C15.7348 5 15.4804 5.10536 15.2929 5.29289C15.1053 5.48043 15 5.73478 15 6C15 6.26522 15.1053 6.51957 15.2929 6.70711C15.4804 6.89464 15.7348 7 16 7H19C19.7956 7 20.5587 6.68393 21.1213 6.12132C21.6839 5.55871 22 4.79565 22 4V1C22 0.734784 21.8946 0.48043 21.7071 0.292893C21.5195 0.105357 21.2652 0 21 0C20.7348 0 20.4804 0.105357 20.2929 0.292893C20.1053 0.48043 20 0.734784 20 1V3.065C17.9525 1.23453 15.3389 0.162166 12.5958 0.0271026C9.85275 -0.107961 7.14641 0.702457 4.92905 2.32293C2.71168 3.94341 1.1176 6.27578 0.413192 8.9303C-0.291217 11.5848 -0.0632888 14.4007 1.05889 16.9074C2.18107 19.414 4.12952 21.4596 6.57865 22.7024C9.02778 23.9451 11.8292 24.3097 14.5149 23.7353C17.2005 23.1608 19.6076 21.682 21.334 19.5461C23.0604 17.4101 24.0015 14.7464 24 12C24 11.7348 23.8946 11.4804 23.7071 11.2929C23.5195 11.1054 23.2652 11 23 11Z" fill="#267485"/>
<path d="M12.0002 6C11.735 6 11.4807 6.10536 11.2931 6.29289C11.1056 6.48043 11.0002 6.73478 11.0002 7V12C11.0003 12.2652 11.1057 12.5195 11.2932 12.707L14.2932 15.707C14.4818 15.8892 14.7344 15.99 14.9966 15.9877C15.2588 15.9854 15.5097 15.8802 15.6951 15.6948C15.8805 15.5094 15.9856 15.2586 15.9879 14.9964C15.9902 14.7342 15.8894 14.4816 15.7072 14.293L13.0002 11.586V7C13.0002 6.73478 12.8949 6.48043 12.7074 6.29289C12.5198 6.10536 12.2655 6 12.0002 6Z" fill="#267485"/>
</g>
<defs>
<clipPath id="clip0_219_336">
<rect width="24" height="24" fill="white"/>
</clipPath>
</defs>
</svg>
