<svg width="30" height="30" viewBox="0 0 30 30" fill="none" xmlns="http://www.w3.org/2000/svg">
<g clip-path="url(#clip0_101_1339)">
<path d="M30 15C30 18.9782 28.4196 22.7936 25.6066 25.6066C22.7936 28.4196 18.9782 30 15 30C11.0218 30 7.20644 28.4196 4.3934 25.6066C1.58035 22.7936 0 18.9782 0 15C0 14.6685 0.131696 14.3505 0.366117 14.1161C0.600537 13.8817 0.918479 13.75 1.25 13.75C1.58152 13.75 1.89946 13.8817 2.13388 14.1161C2.3683 14.3505 2.5 14.6685 2.5 15C2.5 17.4723 3.23311 19.889 4.60663 21.9446C5.98015 24.0002 7.93238 25.6024 10.2165 26.5485C12.5005 27.4946 15.0139 27.7421 17.4386 27.2598C19.8634 26.7775 22.0907 25.587 23.8388 23.8388C25.587 22.0907 26.7775 19.8634 27.2598 17.4386C27.7421 15.0139 27.4946 12.5005 26.5485 10.2165C25.6024 7.93238 24.0002 5.98015 21.9446 4.60663C19.889 3.23311 17.4723 2.5 15 2.5C14.6685 2.5 14.3505 2.3683 14.1161 2.13388C13.8817 1.89946 13.75 1.58152 13.75 1.25C13.75 0.918479 13.8817 0.600537 14.1161 0.366117C14.3505 0.131696 14.6685 0 15 0C18.9769 0.00430135 22.7897 1.58604 25.6019 4.39815C28.414 7.21026 29.9957 11.0231 30 15ZM12.8463 13.75H10C9.66848 13.75 9.35054 13.8817 9.11612 14.1161C8.8817 14.3505 8.75 14.6685 8.75 15C8.75 15.3315 8.8817 15.6495 9.11612 15.8839C9.35054 16.1183 9.66848 16.25 10 16.25H12.8463C13.0371 16.5815 13.3018 16.8647 13.6197 17.0775C13.9376 17.2903 14.3002 17.4271 14.6795 17.4773C15.0588 17.5274 15.4445 17.4896 15.8068 17.3667C16.1691 17.2439 16.4982 17.0393 16.7687 16.7687C17.0393 16.4982 17.2439 16.1691 17.3667 15.8068C17.4896 15.4445 17.5274 15.0588 17.4773 14.6795C17.4271 14.3002 17.2903 13.9376 17.0775 13.6197C16.8647 13.3018 16.5815 13.0371 16.25 12.8463V8.75C16.25 8.41848 16.1183 8.10054 15.8839 7.86612C15.6495 7.6317 15.3315 7.5 15 7.5C14.6685 7.5 14.3505 7.6317 14.1161 7.86612C13.8817 8.10054 13.75 8.41848 13.75 8.75V12.8463C13.3755 13.0641 13.0641 13.3755 12.8463 13.75ZM2.28375 10.98C2.53098 10.98 2.77265 10.9067 2.97821 10.7693C3.18377 10.632 3.34399 10.4368 3.4386 10.2084C3.53321 9.97995 3.55796 9.72861 3.50973 9.48614C3.4615 9.24366 3.34245 9.02093 3.16763 8.84612C2.99282 8.6713 2.77009 8.55225 2.52761 8.50402C2.28514 8.45579 2.0338 8.48054 1.8054 8.57515C1.57699 8.66976 1.38176 8.82998 1.24441 9.03554C1.10706 9.2411 1.03375 9.48277 1.03375 9.73C1.03375 10.0615 1.16545 10.3795 1.39987 10.6139C1.63429 10.8483 1.95223 10.98 2.28375 10.98ZM5.27625 6.50875C5.52348 6.50875 5.76515 6.43544 5.97071 6.29809C6.17627 6.16074 6.33649 5.96551 6.4311 5.7371C6.52571 5.5087 6.55046 5.25736 6.50223 5.01489C6.454 4.77241 6.33495 4.54968 6.16013 4.37487C5.98532 4.20005 5.76259 4.081 5.52011 4.03277C5.27764 3.98454 5.0263 4.00929 4.7979 4.1039C4.56949 4.19851 4.37426 4.35873 4.23691 4.56429C4.09956 4.76985 4.02625 5.01152 4.02625 5.25875C4.02625 5.59027 4.15795 5.90821 4.39237 6.14263C4.62679 6.37705 4.94473 6.50875 5.27625 6.50875ZM9.72375 3.55125C9.97098 3.55125 10.2127 3.47794 10.4182 3.34059C10.6238 3.20324 10.784 3.00801 10.8786 2.7796C10.9732 2.5512 10.998 2.29986 10.9497 2.05739C10.9015 1.81491 10.7824 1.59218 10.6076 1.41737C10.4328 1.24255 10.2101 1.1235 9.96761 1.07527C9.72514 1.02704 9.4738 1.05179 9.2454 1.1464C9.01699 1.24101 8.82176 1.40123 8.68441 1.60679C8.54706 1.81235 8.47375 2.05402 8.47375 2.30125C8.47375 2.63277 8.60545 2.95071 8.83987 3.18513C9.07429 3.41955 9.39223 3.55125 9.72375 3.55125Z" fill="white"/>
</g>
<defs>
<clipPath id="clip0_101_1339">
<rect width="30" height="30" fill="white"/>
</clipPath>
</defs>
</svg>
