<svg width="30" height="30" viewBox="0 0 30 30" fill="none" xmlns="http://www.w3.org/2000/svg">
<g clip-path="url(#clip0_101_1340)">
<path d="M27.25 6.9736L18.5 1.0686C17.4678 0.366593 16.2483 -0.00878906 15 -0.00878906C13.7517 -0.00878906 12.5322 0.366593 11.5 1.0686L2.75 6.9736C1.90269 7.54632 1.20887 8.31821 0.729406 9.22157C0.249941 10.1249 -0.000518023 11.1321 8.04424e-07 12.1548V23.7498C0.00198563 25.4068 0.661103 26.9954 1.83278 28.1671C3.00445 29.3387 4.59301 29.9979 6.25 29.9998H23.75C25.407 29.9979 26.9956 29.3387 28.1672 28.1671C29.3389 26.9954 29.998 25.4068 30 23.7498V12.1548C30.0005 11.1321 29.7501 10.1249 29.2706 9.22157C28.7911 8.31821 28.0973 7.54632 27.25 6.9736ZM27.5 23.7498C27.5 24.7444 27.1049 25.6982 26.4017 26.4015C25.6984 27.1048 24.7446 27.4998 23.75 27.4998H6.25C5.25544 27.4998 4.30161 27.1048 3.59835 26.4015C2.89509 25.6982 2.5 24.7444 2.5 23.7498V12.1548C2.49997 11.541 2.65062 10.9365 2.93875 10.3945C3.22687 9.85246 3.64365 9.38944 4.1525 9.0461L12.9025 3.1411C13.5212 2.72075 14.252 2.496 15 2.496C15.748 2.496 16.4788 2.72075 17.0975 3.1411L25.8475 9.0461C26.3563 9.38944 26.7731 9.85246 27.0613 10.3945C27.3494 10.9365 27.5 11.541 27.5 12.1548V23.7498ZM15 8.75735C13.5153 8.75716 12.064 9.19765 10.8298 10.023C9.59565 10.8483 8.63424 12.0214 8.06733 13.3936C7.50043 14.7658 7.35356 16.2754 7.64532 17.7312C7.93708 19.1869 8.65434 20.5233 9.70625 21.5711L11.9863 23.8011C12.7942 24.5835 13.8747 25.0209 14.9994 25.0209C16.124 25.0209 17.2046 24.5835 18.0125 23.8011L20.3038 21.5611C21.3528 20.5122 22.0673 19.1757 22.3567 17.7208C22.6462 16.2658 22.4977 14.7577 21.9299 13.3871C21.3622 12.0165 20.4008 10.8451 19.1672 10.021C17.9337 9.19694 16.4835 8.75717 15 8.75735ZM18.545 19.7836L16.2638 22.0148C15.9247 22.3432 15.4713 22.5267 14.9994 22.5267C14.5274 22.5267 14.074 22.3432 13.735 22.0148L11.4638 19.7936C10.7649 19.0947 10.2889 18.2045 10.0958 17.2352C9.90266 16.266 10.0011 15.2613 10.3787 14.3479C10.7562 13.4346 11.396 12.6537 12.2172 12.1037C13.0383 11.5538 14.004 11.2596 14.9923 11.2582C15.9806 11.2568 16.9472 11.5483 17.7699 12.0959C18.5926 12.6435 19.2345 13.4226 19.6147 14.3349C19.9948 15.2472 20.0961 16.2516 19.9057 17.2214C19.7153 18.1912 19.2418 19.0828 18.545 19.7836ZM16.25 16.2498C16.25 16.4971 16.1767 16.7387 16.0393 16.9443C15.902 17.1499 15.7068 17.3101 15.4784 17.4047C15.2499 17.4993 14.9986 17.5241 14.7561 17.4758C14.5137 17.4276 14.2909 17.3085 14.1161 17.1337C13.9413 16.9589 13.8223 16.7362 13.774 16.4937C13.7258 16.2512 13.7505 15.9999 13.8452 15.7715C13.9398 15.5431 14.1 15.3479 14.3055 15.2105C14.5111 15.0732 14.7528 14.9998 15 14.9998C15.3315 14.9998 15.6495 15.1315 15.8839 15.366C16.1183 15.6004 16.25 15.9183 16.25 16.2498Z" fill="white"/>
</g>
<defs>
<clipPath id="clip0_101_1340">
<rect width="30" height="30" fill="white"/>
</clipPath>
</defs>
</svg>
