<svg width="93" height="61" viewBox="0 0 93 61" fill="none" xmlns="http://www.w3.org/2000/svg">
<path d="M82.1211 0.666122C81.4411 1.02696 79.4981 2.09559 77.8188 3.03931C76.1395 3.98304 74.1133 5.12106 73.3084 5.55129C72.5034 5.9954 71.6568 6.46726 71.4209 6.60604L70.9768 6.85585L71.4487 7.77182C72.0038 8.85433 72.3369 10.1728 72.3369 11.2692C72.3369 11.7133 72.3646 12.0741 72.4063 12.0741C72.4757 12.0741 75.8342 10.3671 81.6354 7.36935C85.7017 5.27372 86.4789 4.70471 86.7703 3.59445C87.2699 1.74863 85.9793 -3.62396e-05 84.1334 -3.62396e-05C83.495 0.0138416 83.1758 0.110991 82.1211 0.666122Z" fill="#002534"/>
<path d="M44.0948 6.46734C42.9151 6.64776 41.8326 7.17514 39.7786 8.54909L37.6414 9.99244L38.1549 10.3116C40.195 11.6023 41.0138 12.0742 41.1803 12.0742C41.4857 12.0742 41.5273 11.6995 41.222 11.4358C40.764 11.0194 40.6807 10.7419 40.8611 10.3394C41.222 9.53445 42.6792 9.20137 43.6229 9.70099L44.1225 9.96468L44.2752 9.53445C44.5528 8.7989 45.0663 8.53521 46.1488 8.53521C47.0647 8.53521 47.1202 8.54909 47.5505 9.03483C47.8003 9.3124 48.0362 9.61772 48.0779 9.72875C48.1334 9.89529 48.1889 9.89529 48.3554 9.74263C49.0355 9.18749 50.2984 9.29852 50.909 9.9508C51.367 10.4504 51.3393 10.9917 50.8396 11.4219C50.4788 11.7272 50.451 11.7966 50.6176 12.0187C50.7841 12.2685 50.8258 12.2546 51.5474 11.8938C51.9499 11.6856 52.4912 11.5191 52.741 11.5191C53.6708 11.5191 54.5729 12.1575 54.5729 12.8097C54.5729 12.9485 54.4202 13.2677 54.2259 13.5175C53.9206 13.92 53.9067 14.0033 54.0733 14.1559C54.2398 14.2808 54.4341 14.267 55.0031 14.0865C55.4195 13.9478 55.9052 13.8784 56.1828 13.92C57.1681 14.0865 57.9592 15.0025 57.8759 15.863C57.8343 16.2377 57.7233 16.3626 57.1543 16.654C56.7796 16.8483 56.4465 17.0843 56.4187 17.1675C56.391 17.2508 56.6546 17.4867 56.9877 17.681C57.6816 18.0835 57.9037 18.5415 57.6539 19.0827C57.2792 19.9016 56.1967 20.1652 55.0725 19.7073C54.1288 19.3325 53.9067 19.4297 54.3647 20.0403C54.8227 20.6371 54.8227 21.2894 54.3647 21.7057C53.7124 22.3025 52.9353 22.2886 51.7278 21.6641C50.7702 21.1506 50.5204 21.4004 51.2005 22.2054C52.283 23.496 50.7425 24.7173 49.1048 23.8708C48.4803 23.5654 48.3971 23.5793 48.286 24.1206C48.1334 24.8977 47.1341 25.5361 46.0655 25.5361C45.5104 25.5361 44.7193 25.1753 44.2058 24.6757L43.7478 24.2316V26.5493C43.7478 27.8261 43.7756 28.8669 43.8033 28.8669C43.845 28.8669 44.3862 28.5894 45.0246 28.2563C45.663 27.9232 47.6199 26.924 49.3685 26.0219C51.1311 25.1198 53.3377 23.9679 54.2953 23.4544C55.2529 22.9409 56.5297 22.2609 57.1404 21.9278C57.751 21.6086 58.7086 21.0812 59.2638 20.7759L60.2769 20.2208L60.2353 17.4312C60.1936 14.8082 60.1797 14.6 59.8605 13.9616C59.3193 12.8791 58.4172 12.0881 56.0301 10.617C54.8088 9.85365 53.074 8.75727 52.1858 8.17438C49.7988 6.59225 49.424 6.48122 46.7317 6.43959C45.5104 6.42571 44.3307 6.43959 44.0948 6.46734Z" fill="#002534"/>
<path d="M68.6592 8.0217C68.2845 8.24376 66.6885 9.11809 65.1202 9.97855C63.552 10.839 62.1642 11.6162 62.0254 11.7272C61.7756 11.9076 61.7894 11.9631 62.3168 12.7265C62.9691 13.6979 63.4271 14.8637 63.5381 15.8907L63.6353 16.6401L67.2575 14.7804L70.8797 12.9346L70.9214 11.866C70.9491 11.2276 70.8797 10.4782 70.741 9.95079C70.4912 8.97931 69.8389 7.71638 69.5474 7.66087C69.4364 7.64699 69.0478 7.81353 68.6592 8.0217Z" fill="#002534"/>
<path d="M88.0889 8.45187C87.7836 8.59065 86.2848 9.35396 84.7581 10.1589C83.2315 10.9638 80.9277 12.1574 79.6232 12.8374C78.3325 13.5036 76.8198 14.2946 76.2646 14.6L75.2654 15.1412L75.6123 15.9045C76.0981 17.0148 76.3618 18.2222 76.3618 19.4574V20.526L77.1667 20.1097C77.5969 19.8876 79.2762 19.0827 80.8722 18.3332C88.2416 14.8775 89.6433 14.2114 90.1291 13.9477C91.8916 12.9484 92.4606 11.4496 91.6834 9.88134C90.9479 8.39636 89.4907 7.81347 88.0889 8.45187Z" fill="#002534"/>
<path d="M24.6651 8.79881C23.5271 9.07637 22.8054 9.46496 20.5571 10.9916C19.3775 11.7965 17.9203 12.7264 17.3235 13.0594C15.7969 13.906 14.8532 14.8081 14.298 15.9323L13.84 16.8621L13.8539 19.152C13.8817 23.0241 14.5062 24.8283 16.6157 27.1737C17.2819 27.9092 17.2819 27.9092 17.0043 28.1868C16.7406 28.4644 16.7267 28.4644 16.0606 28.0064C15.4499 27.6039 14.7144 26.8129 14.0066 25.8136C13.7845 25.4805 13.7706 25.6193 13.8123 29.2832C13.8678 33.4744 13.8956 33.6826 14.7699 34.9456C15.0197 35.3064 15.4499 35.8199 15.7552 36.0975C16.3659 36.6803 18.406 37.9155 20.6959 39.0813L22.2781 39.8862L25.3452 38.3319C30.1887 35.8754 39.4733 31.0874 39.959 30.7959C40.2366 30.6155 40.5558 30.213 40.7917 29.7273L41.1803 28.9362L41.2775 23.1767C41.3746 17.1258 41.3607 16.8482 40.764 15.6824C40.2921 14.7526 39.6537 14.1836 37.8356 13.0456C36.9336 12.4904 35.3792 11.4773 34.3799 10.8112C31.2712 8.74329 30.841 8.60451 27.5796 8.61839C26.3305 8.61839 25.0537 8.70166 24.6651 8.79881ZM28.8564 11.061C29.1062 11.2414 29.356 11.5467 29.3976 11.7271C29.4948 12.1435 29.467 12.1435 30.1054 11.7965C30.9936 11.3247 32.201 11.5328 32.7007 12.2267C33.0199 12.6847 32.9782 12.9207 32.5064 13.4342C32.09 13.8921 31.9651 14.2946 32.2288 14.2946C32.3121 14.2946 32.6035 14.1697 32.8811 14.0171C33.7415 13.5591 34.8379 13.684 35.5318 14.3224C35.8788 14.6693 35.9204 15.1967 35.6429 15.7518C35.3237 16.3486 35.4902 16.5568 36.0731 16.307C37.114 15.8629 38.1965 16.1821 38.7516 17.098C39.2929 17.9862 39.0569 18.6247 38.0161 19.152L37.6136 19.3463L38.1826 19.8459C38.6683 20.2484 38.7516 20.415 38.7516 20.8452C38.7516 21.8305 37.4609 22.3996 36.4201 21.8722C36.2119 21.775 35.8927 21.6362 35.7123 21.5807L35.3653 21.4697L35.74 21.9138C36.1841 22.4412 36.2396 23.2184 35.8927 23.718C35.3931 24.4258 33.922 24.6478 32.895 24.1482C32.5758 23.9956 32.2982 23.8984 32.2704 23.9262C32.2427 23.9539 32.3815 24.1621 32.5758 24.398C33.0476 24.9532 33.0199 25.4528 32.5064 25.9802C32.1178 26.3688 32.0206 26.3965 31.3406 26.341C30.8826 26.2994 30.4385 26.1606 30.1887 25.9802C29.6336 25.5916 29.5919 25.5916 29.5919 26.0773C29.5919 26.9239 28.6343 27.6178 27.4408 27.6178C26.3999 27.6178 25.5395 27.0349 25.359 26.1883C25.3035 25.9802 25.248 25.8136 25.2203 25.8136C25.2064 25.8136 24.8872 25.9524 24.5263 26.1051C23.3744 26.6186 22.2642 26.23 22.0282 25.2446C21.9589 24.9532 22.0282 24.7727 22.3613 24.3842C22.8748 23.8151 22.9442 23.5098 22.5001 23.7319C22.0838 23.9678 20.9596 24.287 20.5988 24.287C20.0992 24.287 19.4885 23.8568 19.322 23.4127C19.1277 22.8437 19.1277 22.8298 19.6134 22.2885C20.2796 21.5113 19.8216 21.2477 18.7668 21.7889C17.5317 22.4134 16.2687 21.8167 16.2687 20.6093C16.2687 20.3039 16.5463 19.9986 17.1847 19.6239C17.4068 19.499 17.3651 19.4296 16.81 19.0688C15.8108 18.4026 15.7414 17.5699 16.6018 16.7094C17.2125 16.0988 17.8925 15.9878 18.8501 16.307C19.4608 16.5151 19.6273 16.529 19.8077 16.3764C19.9881 16.2237 19.9604 16.1404 19.5995 15.7241C19.0722 15.1273 19.0722 14.7248 19.5995 14.2252C20.1685 13.684 21.0984 13.6007 22.056 14.0171C23.1108 14.4612 23.43 14.142 22.6528 13.4203C22.167 12.9484 22.1115 12.4766 22.514 12.0741C23.1246 11.4634 24.2349 11.3385 24.9843 11.7965C25.2341 11.9492 25.4701 12.0741 25.4978 12.0741C25.5395 12.0741 25.6505 11.8659 25.7615 11.6022C26.1917 10.5891 27.8433 10.2977 28.8564 11.061Z" fill="#002534"/>
<path d="M71.5737 16.9454C70.4357 17.5561 68.6592 18.472 67.6461 18.9855C66.2999 19.6656 65.8142 19.9709 65.8697 20.1235C65.8975 20.2346 66.0918 20.7203 66.2861 21.1922C66.7024 22.1637 66.9106 23.1213 66.9522 24.2315C66.9661 24.6479 66.9939 24.981 66.9939 24.981C67.0077 24.981 67.2853 24.8422 67.6323 24.6756C67.9653 24.523 69.3948 23.8429 70.8104 23.1768C72.226 22.5106 73.7387 21.7889 74.1828 21.5669L74.9739 21.1783V20.068C74.9739 19.4574 74.9045 18.5831 74.8212 18.1251C74.6824 17.2785 74.0579 15.9323 73.7942 15.8768C73.7248 15.8629 72.7256 16.3486 71.5737 16.9454Z" fill="#002534"/>
<path d="M63.2467 21.4003C60.1934 23.149 50.0206 28.5199 41.5271 32.8499C39.5842 33.8492 36.4615 35.4452 34.588 36.4028C27.7876 39.8724 23.1522 42.2178 16.8931 45.3543C7.99711 49.8231 5.97088 50.8917 5.61005 51.2942C5.22145 51.7383 5.22145 52.349 5.62392 52.8208C6.19293 53.487 6.20681 53.487 12.3133 50.6558C13.7705 49.9897 16.102 48.921 17.5176 48.2965C18.9332 47.6581 21.8615 46.3397 24.0404 45.3404C26.2193 44.3551 28.995 43.106 30.2163 42.5786C31.4376 42.0374 33.1307 41.3018 33.9634 40.941C37.8632 39.234 39.9866 38.5123 41.8741 38.2764C43.4701 38.0682 44.9134 38.1931 50.1872 38.998C55.7385 39.8307 58.2505 39.9834 61.2482 39.6919C65.1064 39.2895 68.6731 38.1237 71.2545 36.4028C71.8096 36.0419 72.7811 35.2231 73.4056 34.5986C75.2098 32.8361 75.6678 31.5037 74.8906 30.2963C74.4048 29.5608 73.8636 29.2555 73.0448 29.2555C72.1704 29.2555 71.7957 29.4775 70.4079 30.8237C67.7988 33.3496 64.9537 34.5292 60.8319 34.779L59.3191 34.8762L59.791 33.9324L60.2628 33.0026V30.6572C60.2628 28.3811 60.2767 28.3117 60.582 28.1174C60.7486 28.0203 61.9421 27.4374 63.2328 26.8406L65.5644 25.7581L65.5088 24.287C65.4672 22.9408 65.4256 22.7465 64.9815 21.8583C64.7178 21.3309 64.4402 20.8868 64.3569 20.8591C64.2875 20.8452 63.7879 21.0811 63.2467 21.4003Z" fill="#002534"/>
<path d="M12.3828 40.5108C10.8978 41.4129 7.6503 43.3419 5.16608 44.8269C2.68186 46.298 0.502964 47.6442 0.322546 47.8108C-0.413004 48.5186 0.197641 49.8231 1.26627 49.8231C1.40505 49.8231 4.99954 48.0883 9.27406 45.9649C13.5347 43.8416 17.4761 41.8847 18.0313 41.621C18.5864 41.3573 19.0305 41.1214 19.0305 41.0798C19.0305 41.0381 18.7113 40.8577 18.3088 40.6634C17.9064 40.4691 17.0875 39.9834 16.4908 39.5809C15.894 39.1923 15.325 38.8593 15.2417 38.8731C15.1585 38.8731 13.8678 39.6087 12.3828 40.5108Z" fill="#002534"/>
<path d="M66.9246 40.9549C66.6609 41.1214 66.1474 41.5239 65.7866 41.8569C63.8297 43.6889 61.2761 44.5493 57.8482 44.5493C55.8219 44.5493 54.5868 44.3828 50.8951 43.6473C46.4957 42.759 45.4548 42.6064 43.0539 42.5092C40.0423 42.3982 38.0035 42.7716 35.319 43.4196C33.06 43.9649 28.5144 45.0398 23.33 48.9281C20.7378 50.8722 18.8223 53.1261 17.3096 56.2626C16.5741 57.7893 16.4769 58.2195 16.6851 59.0105C16.8933 59.76 17.7121 60.5788 18.406 60.7037C19.433 60.898 20.4045 60.2041 21.2649 58.6358C24.0406 53.6258 27.7045 50.8362 34.3383 48.6434C39.2651 47.0336 42.7208 46.9364 49.3685 48.241C55.6276 49.4761 58.1951 49.6566 61.2622 49.1292C63.6077 48.7267 65.4118 48.0606 67.0217 46.9919C68.3124 46.1315 69.3116 45.2294 69.8251 44.4522C70.6578 43.1893 70.3109 41.4684 69.1035 40.8855C68.4234 40.5801 67.5213 40.6079 66.9246 40.9549Z" fill="#E37611"/>
<path d="M61.4425 50.9612C61.1372 51.1138 60.6376 51.4608 60.3322 51.7245C58.1256 53.6119 54.3923 54.0283 49.299 52.9458C48.4246 52.7653 47.1478 52.4878 46.4539 52.349C42.4015 51.4608 38.5849 51.6273 35.6982 52.7931C33.4222 53.723 30.2579 56.568 29.8693 58.0391C29.3975 59.7461 30.8825 61.3699 32.5062 60.9258C32.8948 60.8148 33.4499 60.4123 34.4353 59.4825C36.7669 57.3036 38.349 56.7068 41.6659 56.7068C43.5117 56.7068 43.942 56.7623 46.8009 57.3591C50.9644 58.2334 52.38 58.4277 54.3646 58.4277C58.0007 58.4277 60.9429 57.5117 63.2606 55.652C64.7178 54.5001 65.2035 53.029 64.5235 51.8355C63.8712 50.6975 62.6222 50.3366 61.4425 50.9612Z" fill="#FFB800"/>
<path d="M23.1828 20.2161C22.0205 19.3858 22.0781 17.6399 23.2926 16.8881L26.475 14.918C27.1276 14.514 27.9539 14.5191 28.6015 14.9312L32.0195 17.1063C33.2545 17.8922 33.2545 19.695 32.0195 20.481L28.6807 22.6056C27.9928 23.0434 27.108 23.0197 26.4444 22.5458L23.1828 20.2161Z" fill="#E37611"/>
<path fill-rule="evenodd" clip-rule="evenodd" d="M44.0676 19.7657L45.2379 20.6016C45.9014 21.0755 46.7862 21.0992 47.4741 20.6614L50.8129 18.5367C52.0479 17.7508 52.0479 15.948 50.8129 15.1621L47.3949 12.987C46.7473 12.5749 45.9211 12.5698 45.2684 12.9738L44.0676 13.7172V19.7657Z" fill="#E37611"/>
</svg>
