<svg width="116" height="137" viewBox="0 0 116 137" fill="none" xmlns="http://www.w3.org/2000/svg">
<path d="M104.339 0.757363C103.566 1.16749 101.358 2.38209 99.449 3.45473C97.5403 4.52736 95.2373 5.82083 94.3224 6.30983C93.4075 6.8146 92.4453 7.35092 92.1771 7.50866L91.6724 7.79259L92.2087 8.83368C92.8396 10.0641 93.2182 11.5626 93.2182 12.8087C93.2182 13.3135 93.2498 13.7236 93.2971 13.7236C93.376 13.7236 97.1933 11.7834 103.787 8.37623C108.409 5.99435 109.292 5.34761 109.623 4.08569C110.191 1.98774 108.724 0.000208855 106.626 0.000208855C105.901 0.0159826 105.538 0.126401 104.339 0.757363Z" fill="white"/>
<path d="M61.1179 7.35074C59.7771 7.5558 58.5467 8.15522 56.2122 9.71685L53.783 11.3573L54.3666 11.7202C56.6854 13.1871 57.6161 13.7235 57.8053 13.7235C58.1524 13.7235 58.1997 13.2976 57.8527 12.9979C57.3321 12.5246 57.2375 12.2091 57.4425 11.7517C57.8527 10.8368 59.5089 10.4582 60.5816 11.0261L61.1494 11.3258L61.323 10.8368C61.6384 10.0008 62.2221 9.70107 63.4525 9.70107C64.4935 9.70107 64.5566 9.71685 65.0456 10.2689C65.3296 10.5844 65.5977 10.9314 65.645 11.0576C65.7081 11.2469 65.7712 11.2469 65.9605 11.0734C66.7335 10.4425 68.1689 10.5686 68.863 11.31C69.3835 11.8779 69.352 12.4931 68.7841 12.9821C68.374 13.3291 68.3424 13.408 68.5317 13.6604C68.721 13.9443 68.7683 13.9285 69.5886 13.5184C70.046 13.2818 70.6612 13.0925 70.9451 13.0925C72.002 13.0925 73.0273 13.8181 73.0273 14.5595C73.0273 14.7172 72.8538 15.08 72.633 15.364C72.2859 15.8214 72.2702 15.916 72.4594 16.0896C72.6487 16.2315 72.8696 16.2158 73.5163 16.0107C73.9895 15.853 74.5416 15.7741 74.8571 15.8214C75.9771 16.0107 76.8762 17.0518 76.7815 18.0298C76.7342 18.4557 76.608 18.5976 75.9613 18.9289C75.5354 19.1497 75.1568 19.4179 75.1253 19.5125C75.0937 19.6072 75.3934 19.8753 75.772 20.0962C76.5607 20.5536 76.8131 21.0742 76.5291 21.6894C76.1032 22.62 74.8729 22.9197 73.5952 22.3992C72.5225 21.9733 72.2702 22.0837 72.7907 22.7778C73.3112 23.456 73.3112 24.1974 72.7907 24.6706C72.0493 25.3489 71.166 25.3332 69.7936 24.6233C68.7052 24.0397 68.4213 24.3236 69.1942 25.2385C70.4246 26.7055 68.6737 28.0936 66.8123 27.1314C66.1025 26.7844 66.0079 26.8001 65.8817 27.4153C65.7081 28.2987 64.5724 29.0243 63.3578 29.0243C62.7268 29.0243 61.8277 28.6142 61.2441 28.0463L60.7235 27.5415V30.1758C60.7235 31.627 60.7551 32.8101 60.7866 32.8101C60.834 32.8101 61.4491 32.4946 62.1748 32.116C62.9004 31.7374 65.1245 30.6017 67.112 29.5764C69.1153 28.5511 71.6234 27.2418 72.7118 26.6582C73.8002 26.0745 75.2514 25.3016 75.9455 24.923C76.6396 24.5602 77.728 23.9608 78.3589 23.6138L79.5104 22.9828L79.4631 19.8122C79.4158 16.8309 79.4 16.5943 79.0372 15.8687C78.422 14.6384 77.3967 13.7392 74.6836 12.0672C73.2955 11.1996 71.3237 9.95346 70.3142 9.29095C67.601 7.49271 67.1751 7.36651 64.115 7.31919C62.7268 7.30342 61.3861 7.31919 61.1179 7.35074Z" fill="white"/>
<path d="M89.038 9.1174C88.6121 9.36979 86.7981 10.3636 85.0156 11.3415C83.2332 12.3195 81.6558 13.2029 81.498 13.3291C81.2141 13.5341 81.2299 13.5972 81.8293 14.4648C82.5707 15.569 83.0912 16.894 83.2174 18.0613L83.3278 18.9131L87.4448 16.7994L91.5619 14.7014L91.6092 13.4868C91.6407 12.7612 91.5619 11.9094 91.4041 11.31C91.1202 10.2058 90.3788 8.77037 90.0476 8.70728C89.9214 8.6915 89.4797 8.88079 89.038 9.1174Z" fill="white"/>
<path d="M111.122 9.60617C110.775 9.76391 109.071 10.6315 107.336 11.5464C105.601 12.4613 102.982 13.8178 101.499 14.5908C100.032 15.3479 98.3131 16.247 97.6821 16.5941L96.5464 17.2093L96.9407 18.0768C97.4928 19.3388 97.7925 20.7111 97.7925 22.115V23.3296L98.7074 22.8564C99.1964 22.604 101.105 21.6891 102.919 20.8373C111.295 16.9096 112.888 16.1524 113.44 15.8527C115.444 14.717 116.09 13.0134 115.207 11.2309C114.371 9.54307 112.715 8.88056 111.122 9.60617Z" fill="white"/>
<path d="M39.0344 10.0011C37.7409 10.3166 36.9207 10.7582 34.3653 12.4934C33.0245 13.4083 31.3682 14.4651 30.6899 14.8437C28.9548 15.8059 27.8822 16.8312 27.2512 18.1089L26.7306 19.1658L26.7464 21.7685C26.778 26.1695 27.4878 28.2201 29.8855 30.8859C30.6426 31.722 30.6426 31.722 30.3271 32.0374C30.0274 32.3529 30.0116 32.3529 29.2545 31.8324C28.5604 31.3749 27.7244 30.4758 26.9199 29.3401C26.6675 28.9615 26.6518 29.1192 26.6991 33.2836C26.7622 38.0473 26.7937 38.284 27.7875 39.7194C28.0714 40.1295 28.5604 40.7132 28.9075 41.0286C29.6015 41.6912 31.9203 43.095 34.523 44.4201L36.3213 45.335L39.8073 43.5683C45.3125 40.7763 55.8653 35.3342 56.4174 35.003C56.7329 34.7979 57.0957 34.3404 57.3639 33.7884L57.8055 32.8892L57.9159 26.343C58.0264 19.4655 58.0106 19.15 57.3323 17.825C56.796 16.7681 56.0704 16.1214 54.004 14.8279C52.9787 14.197 51.212 13.0455 50.0762 12.2883C46.5429 9.93798 46.0539 9.78024 42.347 9.79602C40.9273 9.79602 39.4761 9.89066 39.0344 10.0011ZM43.7982 12.5723C44.0821 12.7773 44.366 13.1243 44.4134 13.3294C44.5238 13.8026 44.4922 13.8026 45.2178 13.4083C46.2274 12.872 47.5997 13.1086 48.1676 13.8973C48.5304 14.4178 48.4831 14.686 47.9467 15.2696C47.4735 15.7902 47.3316 16.2476 47.6313 16.2476C47.7259 16.2476 48.0572 16.1056 48.3726 15.9321C49.3506 15.4116 50.5968 15.5535 51.3855 16.2792C51.7798 16.6735 51.8272 17.2729 51.5117 17.9039C51.1489 18.5822 51.3382 18.8188 52.0007 18.5348C53.1837 18.0301 54.4141 18.3929 55.0451 19.434C55.6603 20.4435 55.3921 21.1691 54.209 21.7685L53.7516 21.9894L54.3983 22.5572C54.9504 23.0147 55.0451 23.204 55.0451 23.693C55.0451 24.8129 53.5781 25.4597 52.395 24.8602C52.1584 24.7498 51.7956 24.5921 51.5906 24.529L51.1962 24.4028L51.6221 24.9076C52.1269 25.507 52.19 26.3903 51.7956 26.9582C51.2277 27.7627 49.5557 28.015 48.3884 27.4472C48.0256 27.2737 47.7101 27.1632 47.6786 27.1948C47.647 27.2263 47.8048 27.463 48.0256 27.7311C48.5619 28.3621 48.5304 28.9299 47.9467 29.5294C47.5051 29.971 47.3947 30.0026 46.6217 29.9395C46.1012 29.8922 45.5964 29.7344 45.3125 29.5294C44.6815 29.0877 44.6342 29.0877 44.6342 29.6398C44.6342 30.602 43.5458 31.3907 42.1892 31.3907C41.0062 31.3907 40.0282 30.7282 39.8231 29.766C39.76 29.5294 39.6969 29.3401 39.6654 29.3401C39.6496 29.3401 39.2868 29.4978 38.8767 29.6713C37.5674 30.255 36.3055 29.8133 36.0373 28.6933C35.9585 28.3621 36.0373 28.157 36.4159 27.7153C36.9996 27.0686 37.0784 26.7216 36.5737 26.974C36.1004 27.2421 34.8227 27.6049 34.4126 27.6049C33.8447 27.6049 33.1507 27.1159 32.9614 26.6112C32.7406 25.9644 32.7406 25.9486 33.2927 25.3335C34.0498 24.4501 33.5293 24.1504 32.3304 24.7656C30.9265 25.4754 29.4911 24.7971 29.4911 23.4248C29.4911 23.0778 29.8066 22.7307 30.5322 22.3048C30.7846 22.1629 30.7373 22.084 30.1063 21.6739C28.9706 20.9167 28.8917 19.9703 29.8697 18.9923C30.5637 18.2982 31.3367 18.172 32.4251 18.5348C33.1191 18.7715 33.3084 18.7872 33.5135 18.6137C33.7186 18.4402 33.687 18.3456 33.2769 17.8723C32.6775 17.194 32.6775 16.7366 33.2769 16.1687C33.9236 15.5535 34.9805 15.4589 36.0689 15.9321C37.2677 16.4369 37.6305 16.0741 36.7472 15.2538C36.1951 14.7175 36.132 14.1812 36.5894 13.7238C37.2835 13.0297 38.5454 12.8877 39.3972 13.4083C39.6811 13.5818 39.9493 13.7238 39.9809 13.7238C40.0282 13.7238 40.1544 13.4871 40.2806 13.1874C40.7696 12.0359 42.6467 11.7047 43.7982 12.5723Z" fill="white"/>
<path d="M92.3505 19.2604C91.057 19.9544 89.0379 20.9955 87.8864 21.5792C86.3564 22.3521 85.8043 22.6991 85.8674 22.8726C85.8989 22.9988 86.1197 23.5509 86.3406 24.0872C86.8138 25.1914 87.0504 26.2798 87.0977 27.5418C87.1135 28.015 87.1451 28.3936 87.1451 28.3936C87.1608 28.3936 87.4763 28.2358 87.8707 28.0465C88.2492 27.873 89.874 27.1001 91.4829 26.3429C93.0919 25.5858 94.8112 24.7655 95.316 24.5131L96.2151 24.0715V22.8095C96.2151 22.1155 96.1363 21.1217 96.0416 20.6012C95.8839 19.639 95.174 18.1089 94.8743 18.0458C94.7955 18.03 93.6597 18.5821 92.3505 19.2604Z" fill="white"/>
<path d="M82.8863 24.3239C79.416 26.3114 67.8536 32.416 58.1999 37.3375C55.9916 38.4732 52.4424 40.2872 50.3129 41.3757C42.5836 45.3192 37.3151 47.985 30.201 51.5499C20.0898 56.6292 17.7868 57.8438 17.3767 58.3012C16.935 58.806 16.935 59.5 17.3924 60.0364C18.0392 60.7935 18.055 60.7935 24.9955 57.5756C26.6518 56.8184 29.3019 55.6038 30.9108 54.894C32.5198 54.1684 35.8481 52.6699 38.3246 51.5341C40.8011 50.4142 43.9559 48.9945 45.3441 48.3951C46.7322 47.7799 48.6566 46.9439 49.6031 46.5338C54.0356 44.5936 56.449 43.7733 58.5943 43.5051C60.4083 43.2685 62.0488 43.4105 68.0429 44.3254C74.3526 45.2718 77.2077 45.4454 80.6148 45.1141C85 44.6567 89.054 43.3316 91.9879 41.3757C92.6189 40.9655 93.7231 40.0349 94.4329 39.325C96.4835 37.3217 97.0041 35.8074 96.1207 34.4351C95.5686 33.599 94.9535 33.252 94.0228 33.252C93.029 33.252 92.6031 33.5044 91.0257 35.0345C88.0602 37.9054 84.8265 39.2462 80.1416 39.5301L78.4223 39.6405L78.9586 38.5679L79.4949 37.511V34.8452C79.4949 32.2583 79.5107 32.1794 79.8577 31.9585C80.047 31.8481 81.4035 31.1856 82.8705 30.5073L85.5206 29.277L85.4575 27.6049C85.4102 26.0748 85.3628 25.854 84.8581 24.8444C84.5584 24.245 84.2429 23.7403 84.1482 23.7087C84.0694 23.6929 83.5015 23.9611 82.8863 24.3239Z" fill="white"/>
<path d="M25.0743 46.0445C23.3864 47.0698 19.6953 49.2624 16.8717 50.9502C14.0482 52.6223 11.5717 54.1524 11.3666 54.3417C10.5306 55.1461 11.2246 56.6289 12.4392 56.6289C12.597 56.6289 16.6825 54.6571 21.5409 52.2437C26.3835 49.8303 30.8633 47.6061 31.4943 47.3064C32.1253 47.0067 32.63 46.7386 32.63 46.6913C32.63 46.6439 32.2672 46.4389 31.8098 46.218C31.3523 45.9972 30.4217 45.4451 29.7434 44.9877C29.0651 44.546 28.4184 44.1674 28.3237 44.1832C28.2291 44.1832 26.7621 45.0192 25.0743 46.0445Z" fill="white"/>
<path d="M87.0661 46.5495C86.7664 46.7388 86.1828 47.1962 85.7726 47.5748C83.5485 49.657 80.6461 50.635 76.7499 50.635C74.4469 50.635 73.043 50.4457 68.8471 49.6097C63.8467 48.6001 62.6637 48.4266 59.9348 48.3162C56.5118 48.19 54.1945 48.6144 51.1433 49.3509C48.5757 49.9707 43.4092 51.1924 37.5166 55.6118C34.5703 57.8216 32.3933 60.3833 30.6739 63.9483C29.8379 65.6834 29.7275 66.1724 29.9641 67.0715C30.2007 67.9233 31.1313 68.854 31.92 68.996C33.0873 69.2168 34.1915 68.4281 35.1695 66.6456C38.3243 60.9512 42.4887 57.7806 50.0287 55.2883C55.6284 53.4585 59.5562 53.3481 67.1119 54.8309C74.226 56.2348 77.1442 56.4398 80.6303 55.8404C83.2961 55.383 85.3467 54.6258 87.1765 53.4112C88.6435 52.4332 89.7793 51.4079 90.3629 50.5246C91.3093 49.0891 90.915 47.1331 89.5426 46.4706C88.7697 46.1236 87.7444 46.1551 87.0661 46.5495Z" fill="#E37611"/>
<path d="M80.8356 57.9224C80.4885 58.0959 79.9207 58.4903 79.5736 58.79C77.0656 60.9353 72.8223 61.4085 67.0333 60.1781C66.0395 59.973 64.5883 59.6576 63.7996 59.4998C59.1936 58.4903 54.8557 58.6796 51.5747 60.0046C48.9877 61.0614 45.3913 64.2951 44.9496 65.9672C44.4133 67.9074 46.1011 69.7529 47.9467 69.2482C48.3883 69.122 49.0193 68.6645 50.1393 67.6077C52.7893 65.1312 54.5875 64.4529 58.3575 64.4529C60.4555 64.4529 60.9445 64.516 64.1939 65.1942C68.9261 66.188 70.5351 66.4089 72.7908 66.4089C76.9236 66.4089 80.2677 65.3678 82.902 63.254C84.5582 61.9448 85.1103 60.2727 84.3374 58.9162C83.596 57.6227 82.1764 57.2126 80.8356 57.9224Z" fill="#FFB800"/>
<path d="M37.0153 22.7391C35.853 21.9089 35.9106 20.163 37.1251 19.4111L41.237 16.8657C41.8896 16.4617 42.7159 16.4668 43.3635 16.8789L47.7552 19.6736C48.9902 20.4595 48.9902 22.2624 47.7552 23.0483L43.4427 25.7926C42.7548 26.2304 41.87 26.2067 41.2064 25.7328L37.0153 22.7391Z" fill="#E37611"/>
<path fill-rule="evenodd" clip-rule="evenodd" d="M61.0874 22.4658L62.5675 23.523C63.231 23.9969 64.1158 24.0206 64.8037 23.5829L69.1162 20.8385C70.3512 20.0526 70.3512 18.2498 69.1162 17.4639L64.7245 14.6691C64.0769 14.257 63.2506 14.2519 62.598 14.6559L61.0874 15.5911V22.4658Z" fill="#E37611"/>
<path d="M77.3475 76.1583C75.7271 76.6444 75.7811 77.1846 77.5636 78.5349C79.6161 80.1553 80.4803 82.694 80.4803 86.9611V90.688L77.9417 91.1741C76.2673 91.4982 75.295 91.9843 75.187 92.5245C75.079 93.2807 75.4571 93.3347 77.8337 93.1186L80.5884 92.8485L80.2103 99.1681L79.8322 105.434H83.019H86.2598L85.9897 99.2222L85.7197 93.0106H88.4744C89.9867 93.0106 91.3371 93.1726 91.4451 93.3887C91.6071 93.6587 91.5531 96.5215 91.3371 99.7623L91.013 105.758L94.4159 105.704H97.8727L97.5487 103.327C97.3866 102.031 97.2246 96.0353 97.2246 89.9858V78.967H94.2538H91.3371L91.6612 84.0983C91.9852 88.9055 91.9312 89.2296 90.959 89.2296C90.4188 89.2296 89.0685 89.3917 87.9882 89.5537L86.0437 89.8778L85.7737 85.3947C85.5036 80.6955 84.4773 77.7787 82.7489 76.8605C81.2905 76.1043 78.6979 75.7802 77.3475 76.1583Z" fill="white"/>
<path d="M17.2844 77.0228C17.2844 77.1848 17.8246 78.2111 18.5267 79.3454C19.607 81.2358 19.715 82.1001 19.8231 91.3364C19.9851 104.408 20.6873 106.298 25.3325 106.892C27.331 107.162 27.7091 107 29.4915 105.218C30.5718 104.138 31.49 103.273 31.5981 103.273C31.6521 103.273 32.0302 104.03 32.4083 104.894C33.5966 107.703 36.6213 108.459 38.9439 106.568L40.2402 105.542L38.8899 104.084L37.5396 102.625V90.7963V78.9673H34.2987H31.0579V88.5817C31.0579 96.9538 30.9499 98.3582 30.0857 99.7085C28.8974 101.491 27.0609 101.437 26.0346 99.4925C25.4945 98.4662 25.3865 96.1976 25.6025 90.0941C25.8726 80.9658 25.4405 79.0753 22.7398 77.6709C21.2814 76.9148 17.2844 76.4286 17.2844 77.0228Z" fill="white"/>
<path d="M7.02178 78.427C5.94151 78.6971 4.37511 79.7234 3.29484 80.8577C1.67442 82.6941 1.51238 83.1262 1.72844 85.5028C2.05252 88.8517 3.78096 91.3363 7.77797 94.199C11.667 97.0618 12.8012 98.9522 11.883 101.167C10.7487 103.867 7.07579 104.03 5.18531 101.491C4.10504 100.033 4.10504 99.8705 4.96926 97.5479C5.88749 94.9552 5.56341 94.3611 3.61892 94.9552C1.1883 95.6574 0 97.3318 0 100.033C0 102.085 0.270068 102.787 1.45837 103.922C3.72694 105.974 5.02327 106.514 8.10205 106.514C13.6655 106.514 17.2844 103.543 17.2844 98.9522C17.2844 95.8195 16.0421 94.145 10.5327 89.7699C6.6977 86.7451 5.45538 84.5306 6.37362 82.4781C7.18382 80.6956 9.4524 80.1555 10.8568 81.4518C11.937 82.4241 12.0991 84.3145 11.2889 87.0692C10.9108 88.4736 13.3414 88.3656 14.8538 86.8532C16.6362 85.0707 16.6362 82.8022 14.7998 80.6416C13.6655 79.2913 10.3706 77.7249 9.18233 77.9409C9.02029 77.9949 8.04804 78.211 7.02178 78.427Z" fill="white"/>
<path d="M47.046 78.4267C44.3453 79.0748 42.5088 80.6953 41.6446 83.1259C40.5103 86.3127 41.8607 89.5535 45.5336 92.6323C52.0692 98.0877 52.8794 99.438 50.989 102.085C49.9087 103.597 46.5058 103.759 45.2095 102.301C44.0752 101.058 44.0212 97.9256 45.1015 96.4132C45.8037 95.387 45.8037 95.2249 45.0475 94.9549C43.9132 94.5228 40.7264 95.9271 40.0242 97.2234C38.4038 100.302 40.0782 104.299 43.5351 105.758C47.6401 107.486 53.8517 106.082 55.8502 103.003C58.1188 99.546 56.9305 95.0629 52.8794 91.9301C47.9102 88.0951 45.9117 85.8806 45.9117 84.0441C45.9117 81.0734 48.5584 79.561 50.4488 81.4514C51.7992 82.7478 52.0692 84.7463 51.097 86.2047C50.3408 87.393 50.3408 87.555 51.097 87.8251C53.6356 88.7973 55.6341 87.0149 55.6341 83.774C55.6341 81.9916 55.3101 81.2354 53.9597 79.9931C53.0415 79.1289 51.8532 78.4267 51.313 78.4267C50.7729 78.4267 50.0167 78.3187 49.5846 78.2106C49.2065 78.1026 48.0722 78.2106 47.046 78.4267Z" fill="white"/>
<path d="M102.086 89.1754C102.086 94.7388 101.924 100.788 101.762 102.517L101.438 105.704H104.679H107.919L107.811 92.3622L107.757 78.9668H104.949H102.086V89.1754Z" fill="white"/>
<path d="M65.8967 82.262C63.9522 83.0722 61.1435 85.8809 59.7931 88.4195C58.1727 91.4443 58.0647 101.977 59.6311 104.894C62.7639 110.781 69.0295 112.996 74.8629 110.349C77.6176 109.107 78.2658 108.243 76.1593 108.567C73.6206 108.945 69.0295 107.27 67.139 105.326C64.7084 102.841 63.7361 99.6544 63.7361 94.253C63.7361 89.0137 64.9784 85.7189 67.193 85.1247C69.9477 84.4765 72.3243 87.3393 71.298 90.04C70.5958 91.8764 71.5141 91.7684 73.5126 89.8239C75.3491 87.9334 75.6191 85.1787 74.1067 83.2882C73.3505 82.316 72.4323 81.9919 70.1637 81.8839C68.5433 81.7759 66.6528 81.9379 65.8967 82.262Z" fill="white"/>
<path d="M6.29557 125.832C6.26245 130.038 6.12997 133.714 6.03061 134.045C5.89813 134.542 6.12997 134.608 8.05094 134.575H10.2038L10.0381 133.615C9.93879 133.085 9.83943 129.409 9.83943 125.434V118.181H8.11718H6.36181L6.29557 125.832Z" fill="#FFB800"/>
<path d="M11.9259 125.832C11.8928 130.038 11.7603 133.714 11.661 134.045C11.5285 134.542 11.7603 134.608 13.6813 134.575H15.8341L15.6685 133.615C15.5692 133.085 15.4698 129.409 15.4698 125.434V118.181H13.7476H11.9922L11.9259 125.832Z" fill="#FFB800"/>
<path d="M68.2302 121.063C67.9321 121.162 68.0314 121.493 68.5283 122.156C69.0582 122.884 69.29 123.845 69.4887 126.031C69.7537 129.343 69.9524 130.005 70.8135 130.436C71.7409 130.933 73.4632 130.833 74.1587 130.204C74.7217 129.707 74.7548 129.74 74.7548 131.363C74.7548 134.278 75.9472 135.636 77.835 134.874C78.2325 134.708 79.3254 134.576 80.2197 134.576H81.8757L81.9088 128.78L81.9419 122.951L80.4184 122.917L78.8949 122.884L78.9942 126.925C79.0273 129.111 78.9611 131.595 78.7955 132.423L78.5305 133.913L78.0337 133.085C77.5369 132.191 77.3713 125.501 77.835 123.712C78.0669 122.818 78.0669 122.818 76.3777 122.818C74.7217 122.818 74.6886 122.851 74.8873 123.646C75.2185 125.004 74.7217 127.819 74.0262 128.515C72.9995 129.541 72.5358 128.78 72.3039 125.7C72.1715 124.209 72.0059 122.719 71.9065 122.388C71.5753 121.361 69.4225 120.566 68.2302 121.063Z" fill="#FFB800"/>
<path d="M57.5325 122.487C57.5325 122.652 57.665 122.818 57.8637 122.818C58.0293 122.818 58.4267 123.215 58.7579 123.679C59.2216 124.408 59.321 125.368 59.3541 128.68V132.82L60.447 133.781C61.0432 134.31 61.7387 134.741 62.0368 134.741C62.7986 134.741 63.9247 134.112 64.5539 133.284L65.117 132.588L65.4482 133.449C65.9119 134.741 67.7004 135.172 69.1576 134.377C69.7538 134.079 69.7869 133.946 69.3564 133.482C68.4621 132.423 68.1309 130.667 68.1309 126.925V123.149H67.2367C66.7068 123.149 65.9781 123.05 65.5807 122.95C64.8189 122.752 64.8189 122.752 64.8189 126.759C64.8189 130.833 64.5539 132.091 63.6597 132.091C62.8317 132.091 62.5005 130.899 62.5005 127.786C62.5005 124.573 62.0368 123.116 60.8776 122.487C60.0496 122.056 57.5325 122.056 57.5325 122.487Z" fill="#FFB800"/>
<path d="M88.6655 122.321C88.6655 122.387 89.0298 122.818 89.4935 123.281C90.2884 124.076 90.3215 124.308 90.3215 127.686C90.3215 132.157 90.6859 133.582 92.0107 134.244C93.203 134.873 94.1304 134.675 95.3889 133.482C95.8857 133.019 96.2832 132.82 96.2832 133.019C96.2832 134.343 98.7672 135.204 100.291 134.41C100.92 134.045 100.92 134.045 100.258 133.151C99.3633 131.926 98.8334 128.481 99.0984 125.533L99.2971 123.149H98.3697C97.8729 123.149 97.1112 123.049 96.7137 122.95C95.952 122.751 95.952 122.751 95.952 126.858C95.952 131.396 95.5876 132.621 94.3953 131.892C93.8985 131.594 93.766 130.932 93.6335 127.918C93.4679 124.242 93.1367 123.083 91.9775 122.486C91.3814 122.155 88.6655 122.023 88.6655 122.321Z" fill="#FFB800"/>
<path d="M25.439 122.752C25.0747 123.017 25.1078 123.248 25.6046 124.01C26.1677 124.838 26.2339 125.567 26.1677 129.773L26.1014 134.575L27.8568 134.609H29.6122L29.3472 133.449C29.1816 132.787 29.0491 130.502 29.0491 128.349V124.474H30.3739C31.5994 124.474 31.6656 124.54 31.8974 125.666C32.0299 126.329 32.0299 128.614 31.8974 130.767L31.6656 134.675L33.3216 134.642L34.9776 134.609L34.9114 128.813L34.8451 122.983H32.6923C31.5 122.983 29.5128 122.851 28.2211 122.718C26.8632 122.553 25.704 122.586 25.439 122.752Z" fill="#FFB800"/>
<path d="M48.5237 122.718C47.4307 122.884 47.4307 122.917 48.1593 124.043C49.0205 125.335 49.1198 131.032 48.3581 133.218C47.1326 136.629 46.139 135.006 46.1721 129.674V126.13H44.5824H42.9595V128.448C42.9595 131.297 42.3302 132.754 41.1379 132.754C38.8195 132.754 38.687 126.362 40.9723 125.136C41.4028 124.904 42.1315 124.838 42.6614 124.938C43.8537 125.169 43.8868 124.706 42.7939 123.646C41.2703 122.089 37.9583 122.95 36.7991 125.202C35.4743 127.72 35.9711 132.29 37.6934 133.946C38.9851 135.172 40.8729 135.238 42.0652 134.145L42.8932 133.383L43.0919 134.311C43.5888 136.265 44.0856 136.629 46.5696 136.894C50.9083 137.324 51.3057 136.728 51.5045 129.674L51.6369 124.772L52.6968 124.871L53.7235 124.971V129.839V134.708L55.512 134.675L57.2674 134.609L57.0687 133.449C56.9693 132.787 56.8699 130.237 56.8699 127.753V123.248L53.591 123.05C51.7694 122.917 50.1134 122.752 49.8485 122.718C49.6166 122.652 49.0205 122.652 48.5237 122.718Z" fill="#FFB800"/>
<path d="M85.0222 123.845C85.0222 125.17 84.128 127.057 83.2669 127.488C82.7038 127.819 82.6376 128.084 82.8032 129.541C83.2337 133.151 85.9165 135.735 89.2616 135.735C91.1826 135.735 91.4807 135.371 89.9903 134.741C89.4603 134.509 88.3011 133.549 87.3738 132.588C85.519 130.634 84.9229 128.846 85.784 127.985C86.6782 127.057 87.6056 125.302 87.8374 124.043L88.0693 122.818H86.5458C85.0554 122.818 85.0222 122.851 85.0222 123.845Z" fill="#FFB800"/>
</svg>
