<svg width="256" height="302" viewBox="0 0 256 302" fill="none" xmlns="http://www.w3.org/2000/svg">
<path d="M231.162 1.67092C229.456 2.57603 224.582 5.25653 220.37 7.62372C216.158 9.99092 211.075 12.8455 209.056 13.9246C207.037 15.0386 204.914 16.2222 204.322 16.5703L203.208 17.1969L204.391 19.4945C205.784 22.2098 206.619 25.5169 206.619 28.2671C206.619 29.381 206.689 30.2861 206.793 30.2861C206.967 30.2861 215.392 26.0043 229.943 18.485C240.143 13.2284 242.092 11.8011 242.823 9.01619C244.077 4.38623 240.839 -4.19617e-05 236.209 -4.19617e-05C234.608 0.034771 233.807 0.278452 231.162 1.67092Z" fill="#002534"/>
<path d="M135.777 16.2223C132.818 16.6748 130.103 17.9977 124.951 21.444L119.59 25.0644L120.878 25.8651C125.995 29.1026 128.049 30.2862 128.467 30.2862C129.232 30.2862 129.337 29.3463 128.571 28.6848C127.422 27.6405 127.213 26.9443 127.666 25.9347C128.571 23.9156 132.226 23.0802 134.593 24.3334L135.847 24.9948L136.23 23.9156C136.926 22.0706 138.214 21.4092 140.929 21.4092C143.227 21.4092 143.366 21.444 144.445 22.6624C145.072 23.3587 145.664 24.1245 145.768 24.403C145.907 24.8207 146.046 24.8207 146.464 24.4378C148.17 23.0453 151.338 23.3238 152.87 24.96C154.018 26.2132 153.949 27.5709 152.696 28.65C151.79 29.4159 151.721 29.5899 152.139 30.1469C152.556 30.7735 152.661 30.7387 154.471 29.8336C155.48 29.3115 156.838 28.8937 157.465 28.8937C159.797 28.8937 162.06 30.495 162.06 32.1312C162.06 32.4793 161.677 33.28 161.19 33.9066C160.424 34.9161 160.389 35.125 160.807 35.5079C161.224 35.8212 161.712 35.7864 163.139 35.3339C164.183 34.9858 165.402 34.8117 166.098 34.9161C168.57 35.3339 170.554 37.6314 170.345 39.7898C170.241 40.7297 169.962 41.043 168.535 41.774C167.595 42.2614 166.759 42.8532 166.69 43.0621C166.62 43.2709 167.282 43.8627 168.117 44.3501C169.858 45.3596 170.415 46.5084 169.788 47.8661C168.848 49.92 166.133 50.5814 163.313 49.4326C160.946 48.4927 160.389 48.7364 161.538 50.2681C162.686 51.765 162.686 53.4011 161.538 54.4455C159.902 55.9424 157.952 55.9076 154.923 54.3411C152.521 53.053 151.895 53.6796 153.601 55.6987C156.316 58.9362 152.452 61.9996 148.344 59.8761C146.778 59.1103 146.569 59.1451 146.29 60.5027C145.907 62.4522 143.401 64.0535 140.72 64.0535C139.328 64.0535 137.344 63.1484 136.056 61.8952L134.907 60.7812V66.5948C134.907 69.7974 134.976 72.4083 135.046 72.4083C135.15 72.4083 136.508 71.7121 138.109 70.8766C139.711 70.0411 144.619 67.5347 149.005 65.2719C153.427 63.0092 158.962 60.1198 161.364 58.8318C163.766 57.5437 166.968 55.838 168.5 55.0025C170.032 54.2018 172.434 52.879 173.826 52.1131L176.367 50.7206L176.263 43.7235C176.159 37.1441 176.124 36.6219 175.323 35.0206C173.965 32.3053 171.703 30.321 165.715 26.631C162.652 24.7163 158.3 21.9662 156.072 20.5041C150.085 16.5356 149.145 16.2571 142.391 16.1526C139.328 16.1178 136.369 16.1526 135.777 16.2223Z" fill="#002534"/>
<path d="M197.394 20.1212C196.454 20.6782 192.451 22.8713 188.517 25.0296C184.583 27.188 181.102 29.1374 180.754 29.4159C180.127 29.8685 180.162 30.0077 181.485 31.9224C183.121 34.3592 184.27 37.2834 184.548 39.8594L184.792 41.7393L193.878 37.0745L202.964 32.4445L203.068 29.764C203.138 28.1627 202.964 26.2829 202.616 24.96C201.989 22.5232 200.353 19.3553 199.622 19.2161C199.343 19.1813 198.369 19.599 197.394 20.1212Z" fill="#002534"/>
<path d="M246.13 21.2004C245.365 21.5485 241.605 23.4632 237.776 25.4822C233.946 27.5013 228.168 30.4951 224.895 32.2009C221.658 33.8719 217.863 35.8561 216.471 36.622L213.964 37.9796L214.835 39.8943C216.053 42.6792 216.714 45.7078 216.714 48.8061V51.4866L218.734 50.4422C219.813 49.8852 224.025 47.8662 228.028 45.9863C246.513 37.3182 250.029 35.6473 251.248 34.9858C255.669 32.4794 257.096 28.7197 255.147 24.786C253.302 21.0612 249.646 19.5991 246.13 21.2004Z" fill="#002534"/>
<path d="M87.0408 22.0706C84.1863 22.7669 82.3761 23.7416 76.7366 27.5709C73.7776 29.59 70.1224 31.9223 68.6254 32.7578C64.7962 34.8813 62.429 37.1441 61.0365 39.9638L59.8877 42.2962L59.9225 48.0402C59.9922 57.7526 61.5587 62.2781 66.8501 68.1613C68.521 70.0063 68.521 70.0063 67.8248 70.7026C67.1634 71.3988 67.1285 71.3988 65.4576 70.25C63.9259 69.2405 62.0809 67.2562 60.3055 64.7498C59.7485 63.9143 59.7137 64.2624 59.8181 73.4527C59.9573 83.9658 60.027 84.488 62.2201 87.6559C62.8467 88.561 63.9259 89.849 64.6917 90.5452C66.2234 92.0073 71.3408 95.1056 77.0847 98.0297L81.0532 100.049L88.7466 96.1499C100.896 89.9882 124.185 77.9782 125.403 77.2472C126.1 76.7946 126.9 75.7851 127.492 74.5667L128.467 72.5824L128.71 58.1355C128.954 42.9576 128.919 42.2614 127.422 39.3372C126.239 37.0048 124.637 35.5776 120.077 32.723C117.814 31.3305 113.915 28.7893 111.409 27.1183C103.611 21.9314 102.532 21.5833 94.3513 21.6181C91.2182 21.6181 88.0156 21.827 87.0408 22.0706ZM97.554 27.7449C98.1806 28.1975 98.8072 28.9633 98.9116 29.4159C99.1553 30.4603 99.0857 30.4603 100.687 29.59C102.915 28.4064 105.944 28.9285 107.197 30.6691C107.997 31.8179 107.893 32.4097 106.709 33.6977C105.665 34.8465 105.352 35.8561 106.013 35.8561C106.222 35.8561 106.953 35.5428 107.649 35.1598C109.808 34.011 112.558 34.3243 114.298 35.9257C115.169 36.796 115.273 38.1188 114.577 39.5113C113.776 41.0082 114.194 41.5304 115.656 40.9038C118.267 39.7898 120.982 40.5905 122.375 42.888C123.732 45.116 123.141 46.7173 120.53 48.0402L119.52 48.5275L120.947 49.7807C122.166 50.7903 122.375 51.208 122.375 52.2872C122.375 54.7588 119.137 56.1861 116.526 54.8633C116.004 54.6196 115.203 54.2715 114.751 54.1322L113.881 53.8537L114.821 54.9677C115.935 56.2905 116.074 58.24 115.203 59.4932C113.95 61.2686 110.26 61.8256 107.684 60.5724C106.883 60.1894 106.187 59.9458 106.118 60.0154C106.048 60.085 106.396 60.6072 106.883 61.199C108.067 62.5914 107.997 63.8447 106.709 65.1675C105.735 66.1422 105.491 66.2119 103.785 66.0726C102.636 65.9682 101.522 65.6201 100.896 65.1675C99.5034 64.1928 99.399 64.1928 99.399 65.4112C99.399 67.5347 96.997 69.2753 94.0032 69.2753C91.3923 69.2753 89.234 67.8132 88.7814 65.6897C88.6422 65.1675 88.5029 64.7498 88.4333 64.7498C88.3985 64.7498 87.5978 65.0979 86.6927 65.4808C83.8033 66.7688 81.0184 65.7941 80.4266 63.3225C80.2526 62.5914 80.4266 62.1389 81.2621 61.1642C82.5501 59.7369 82.7242 58.971 81.6102 59.528C80.5659 60.1198 77.7461 60.9205 76.841 60.9205C75.5878 60.9205 74.0561 59.8413 73.6383 58.7273C73.151 57.3001 73.151 57.2653 74.3694 55.9076C76.0403 53.9581 74.8916 53.2967 72.2459 54.6544C69.1476 56.2209 65.9798 54.724 65.9798 51.6954C65.9798 50.9295 66.676 50.1637 68.2773 49.2238C68.8343 48.9104 68.7299 48.7364 67.3374 47.8313C64.831 46.1603 64.6569 44.0716 66.8152 41.9133C68.347 40.3816 70.0527 40.1031 72.4547 40.9038C73.9864 41.4259 74.4042 41.4607 74.8567 41.0778C75.3093 40.6949 75.2397 40.486 74.3346 39.4417C73.0117 37.9448 73.0117 36.9352 74.3346 35.682C75.7618 34.3243 78.0942 34.1155 80.4962 35.1598C83.1419 36.2738 83.9426 35.4731 81.9931 33.6629C80.7747 32.4793 80.6355 31.2957 81.645 30.2862C83.1767 28.7545 85.9617 28.4412 87.8415 29.59C88.4681 29.9729 89.0599 30.2862 89.1295 30.2862C89.234 30.2862 89.5125 29.764 89.791 29.1026C90.8701 26.5613 95.0127 25.8303 97.554 27.7449Z" fill="#002534"/>
<path d="M204.704 42.505C201.85 44.0368 197.394 46.3343 194.853 47.6224C191.476 49.3281 190.258 50.094 190.397 50.4769C190.466 50.7554 190.954 51.9738 191.441 53.1574C192.486 55.5942 193.008 57.9962 193.112 60.7812C193.147 61.8255 193.217 62.661 193.217 62.661C193.251 62.661 193.948 62.3129 194.818 61.8952C195.653 61.5122 199.239 59.8065 202.79 58.1355C206.341 56.4645 210.135 54.6543 211.249 54.0973L213.233 53.1226V50.3377C213.233 48.806 213.059 46.6128 212.85 45.464C212.502 43.3405 210.936 39.9638 210.274 39.8245C210.1 39.7897 207.594 41.0081 204.704 42.505Z" fill="#002534"/>
<path d="M183.818 53.6796C176.159 58.0659 150.642 71.538 129.337 82.3993C124.464 84.9057 116.631 88.9091 111.931 91.3111C94.8737 100.014 83.2466 105.897 67.5465 113.765C45.2322 124.974 40.1497 127.654 39.2446 128.664C38.2698 129.778 38.2698 131.31 39.2794 132.493C40.7067 134.164 40.7415 134.164 56.0586 127.063C59.7138 125.392 65.5622 122.711 69.113 121.145C72.6638 119.543 80.0091 116.236 85.4745 113.73C90.9399 111.258 97.9023 108.125 100.966 106.802C104.029 105.445 108.276 103.6 110.365 102.695C120.147 98.4127 125.473 96.6025 130.208 96.0107C134.211 95.4885 137.831 95.8018 151.06 97.8209C164.984 99.9096 171.285 100.292 178.805 99.5615C188.482 98.5519 197.429 95.6277 203.904 91.3111C205.296 90.406 207.733 88.3521 209.3 86.7856C213.825 82.3645 214.974 79.0226 213.025 75.9939C211.806 74.1489 210.448 73.3831 208.395 73.3831C206.201 73.3831 205.262 73.94 201.78 77.3168C195.236 83.6525 188.099 86.6115 177.76 87.2381L173.966 87.4818L175.149 85.1146L176.333 82.7822V76.899C176.333 71.1899 176.368 71.0159 177.134 70.5285C177.551 70.2848 180.545 68.8227 183.783 67.3258L189.631 64.6105L189.492 60.9205C189.387 57.5437 189.283 57.0564 188.169 54.8284C187.508 53.5056 186.811 52.3916 186.602 52.322C186.428 52.2872 185.175 52.879 183.818 53.6796Z" fill="#002534"/>
<path d="M56.2325 101.615C52.5077 103.878 44.3618 108.717 38.1305 112.442C31.8992 116.132 26.4337 119.509 25.9812 119.926C24.1362 121.702 25.6679 124.974 28.3484 124.974C28.6965 124.974 37.7127 120.623 48.4347 115.296C59.1219 109.97 69.0084 105.062 70.4009 104.4C71.7934 103.739 72.9073 103.147 72.9073 103.043C72.9073 102.938 72.1067 102.486 71.0971 101.998C70.0876 101.511 68.0337 100.293 66.5368 99.283C65.0399 98.3082 63.6126 97.4728 63.4037 97.5076C63.1949 97.5076 59.9574 99.3526 56.2325 101.615Z" fill="#002534"/>
<path d="M193.043 102.729C192.381 103.147 191.093 104.157 190.188 104.992C185.279 109.587 178.874 111.745 170.276 111.745C165.193 111.745 162.095 111.328 152.835 109.483C141.8 107.255 139.189 106.872 133.166 106.628C125.612 106.35 120.498 107.286 113.765 108.912C108.098 110.28 96.6963 112.976 83.6919 122.729C77.1897 127.606 72.3852 133.259 68.5907 141.127C66.7457 144.956 66.502 146.035 67.0242 148.019C67.5464 149.899 69.6002 151.953 71.3408 152.266C73.9169 152.754 76.3537 151.013 78.512 147.079C85.4744 134.512 94.6647 127.515 111.305 122.015C123.663 117.977 132.331 117.733 149.006 121.005C164.706 124.104 171.146 124.556 178.839 123.233C184.723 122.224 189.248 120.553 193.286 117.872C196.524 115.714 199.03 113.451 200.318 111.502C202.407 108.334 201.537 104.017 198.508 102.555C196.802 101.789 194.539 101.859 193.043 102.729Z" fill="#E37611"/>
<path d="M179.292 127.828C178.526 128.211 177.273 129.082 176.507 129.743C170.972 134.478 161.608 135.522 148.832 132.807C146.639 132.354 143.436 131.658 141.695 131.31C131.53 129.082 121.957 129.499 114.716 132.424C109.007 134.756 101.07 141.892 100.095 145.582C98.9118 149.864 102.637 153.937 106.71 152.823C107.684 152.545 109.077 151.535 111.548 149.203C117.397 143.737 121.365 142.241 129.685 142.241C134.315 142.241 135.394 142.38 142.566 143.877C153.009 146.07 156.56 146.557 161.538 146.557C170.659 146.557 178.039 144.26 183.852 139.595C187.508 136.705 188.726 133.015 187.02 130.022C185.384 127.167 182.251 126.262 179.292 127.828Z" fill="#FFB800"/>
<path d="M79.6347 48.0746C78.4724 47.2443 78.53 45.4984 79.7445 44.7466L93.1906 36.4228C93.8432 36.0188 94.6695 36.0239 95.317 36.436L109.487 45.4536C110.722 46.2395 110.722 48.0423 109.487 48.8282L95.3963 57.7954C94.7083 58.2331 93.8235 58.2094 93.16 57.7355L79.6347 48.0746Z" fill="#E37611"/>
<path fill-rule="evenodd" clip-rule="evenodd" d="M135.709 49.579L140.301 52.8589C140.964 53.3328 141.849 53.3565 142.537 52.9187L156.628 43.9516C157.863 43.1657 157.863 41.3628 156.628 40.5769L142.458 31.5594C141.81 31.1473 140.984 31.1422 140.332 31.5462L135.709 34.4076V49.579Z" fill="#E37611"/>
<path d="M170.698 172.682C167.122 173.754 167.241 174.946 171.175 177.927C175.704 181.503 177.612 187.105 177.612 196.522V204.747L172.009 205.82C168.314 206.535 166.168 207.608 165.93 208.8C165.691 210.469 166.526 210.588 171.771 210.111L177.85 209.515L177.016 223.462L176.181 237.289H183.214H190.366L189.77 223.581L189.174 209.873H195.254C198.591 209.873 201.571 210.23 201.81 210.707C202.167 211.303 202.048 217.621 201.571 224.773L200.856 238.005L208.366 237.885H215.995L215.28 232.641C214.922 229.78 214.564 216.548 214.564 203.197V178.88H208.008H201.571L202.287 190.204C203.002 200.813 202.883 201.529 200.737 201.529C199.545 201.529 196.565 201.886 194.181 202.244L189.89 202.959L189.294 193.065C188.698 182.695 186.433 176.258 182.618 174.231C179.4 172.562 173.678 171.847 170.698 172.682Z" fill="#002534"/>
<path d="M38.1448 174.589C38.1448 174.946 39.3368 177.211 40.8864 179.715C43.2705 183.887 43.5089 185.794 43.7473 206.177C44.1049 235.025 45.6545 239.197 55.906 240.508C60.3165 241.104 61.1509 240.746 65.0846 236.813C67.4686 234.429 69.4951 232.521 69.7335 232.521C69.8527 232.521 70.6871 234.19 71.5215 236.097C74.144 242.296 80.8193 243.965 85.945 239.793L88.8059 237.528L85.8258 234.309L82.8457 231.091V204.985V178.88H75.6936H68.5414V200.098C68.5414 218.575 68.303 221.674 66.3958 224.654C63.7733 228.588 59.7204 228.468 57.4556 224.177C56.2636 221.912 56.0252 216.906 56.502 203.436C57.098 183.291 56.1444 179.119 50.1842 176.019C46.9658 174.35 38.1448 173.278 38.1448 174.589Z" fill="#002534"/>
<path d="M15.4963 177.688C13.1123 178.284 9.65541 180.549 7.27136 183.052C3.69528 187.105 3.33767 188.059 3.81448 193.304C4.5297 200.694 8.34418 206.178 17.1652 212.495C25.7478 218.813 28.251 222.985 26.2246 227.872C23.7213 233.833 15.6155 234.19 11.4434 228.588C9.0594 225.369 9.0594 225.012 10.9666 219.886C12.9931 214.164 12.2779 212.853 7.98657 214.164C2.62246 215.714 0 219.409 0 225.369C0 229.899 0.596013 231.448 3.21847 233.952C8.22498 238.481 11.0858 239.673 17.8804 239.673C30.1583 239.673 38.1448 233.117 38.1448 222.985C38.1448 216.071 35.4032 212.376 23.2445 202.721C14.7811 196.045 12.0395 191.158 14.0659 186.628C15.8539 182.695 20.8605 181.503 23.9597 184.363C26.3438 186.509 26.7014 190.681 24.9133 196.761C24.0789 199.86 29.443 199.621 32.7807 196.284C36.7144 192.35 36.7144 187.344 32.6615 182.575C30.1583 179.595 22.8869 176.138 20.2644 176.615C19.9068 176.734 17.7612 177.211 15.4963 177.688Z" fill="#002534"/>
<path d="M103.825 177.688C97.8652 179.119 93.8123 182.695 91.9051 188.059C89.4018 195.092 92.3819 202.244 100.488 209.038C114.911 221.078 116.699 224.058 112.527 229.899C110.143 233.237 102.633 233.594 99.7724 230.376C97.2692 227.634 97.15 220.72 99.534 217.383C101.084 215.118 101.084 214.76 99.4148 214.164C96.9116 213.21 89.8786 216.31 88.329 219.171C84.7529 225.965 88.4482 234.786 96.0772 238.005C105.137 241.819 118.845 238.72 123.255 231.925C128.262 224.296 125.639 214.403 116.699 207.489C105.733 199.025 101.322 194.138 101.322 190.085C101.322 183.529 107.163 180.191 111.335 184.363C114.315 187.224 114.911 191.635 112.766 194.853C111.097 197.476 111.097 197.833 112.766 198.429C118.368 200.575 122.779 196.641 122.779 189.489C122.779 185.555 122.063 183.887 119.083 181.145C117.057 179.238 114.434 177.688 113.242 177.688C112.05 177.688 110.381 177.45 109.428 177.211C108.593 176.973 106.09 177.211 103.825 177.688Z" fill="#002534"/>
<path d="M225.293 201.409C225.293 213.687 224.935 227.038 224.578 230.852L223.862 237.885H231.014H238.167L237.928 208.442L237.809 178.88H231.61H225.293V201.409Z" fill="#002534"/>
<path d="M145.427 186.152C141.136 187.94 134.937 194.138 131.957 199.741C128.381 206.416 128.143 229.66 131.6 236.097C138.514 249.09 152.341 253.978 165.215 248.137C171.294 245.395 172.725 243.488 168.076 244.203C162.473 245.038 152.341 241.342 148.169 237.051C142.805 231.568 140.659 224.535 140.659 212.614C140.659 201.052 143.401 193.78 148.288 192.469C154.367 191.039 159.612 197.357 157.348 203.317C155.798 207.37 157.824 207.131 162.235 202.84C166.288 198.668 166.884 192.588 163.546 188.416C161.877 186.271 159.851 185.555 154.844 185.317C151.268 185.079 147.096 185.436 145.427 186.152Z" fill="#002534"/>
<path d="M17.6523 277.144C17.5792 286.427 17.2868 294.54 17.0676 295.271C16.7752 296.367 17.2868 296.513 21.5262 296.44H26.2772L25.9118 294.321C25.6925 293.151 25.4732 285.038 25.4732 276.267V260.259H21.6724H17.7985L17.6523 277.144Z" fill="#FFB800"/>
<path d="M30.0781 277.144C30.005 286.427 29.7126 294.54 29.4933 295.271C29.201 296.367 29.7126 296.513 33.952 296.44H38.703L38.3376 294.321C38.1183 293.151 37.899 285.038 37.899 276.267V260.259H34.0982H30.2243L30.0781 277.144Z" fill="#FFB800"/>
<path d="M154.336 266.618C153.678 266.838 153.897 267.569 154.993 269.03C156.163 270.638 156.675 272.758 157.113 277.582C157.698 284.892 158.136 286.353 160.037 287.304C162.083 288.4 165.884 288.181 167.419 286.792C168.662 285.696 168.735 285.769 168.735 289.35C168.735 295.782 171.366 298.779 175.532 297.098C176.41 296.733 178.822 296.44 180.795 296.44H184.45L184.523 283.649L184.596 270.785L181.234 270.712L177.871 270.638L178.091 279.556C178.164 284.38 178.018 289.862 177.652 291.689L177.067 294.978L175.971 293.151C174.875 291.177 174.509 276.413 175.532 272.466C176.044 270.492 176.044 270.492 172.316 270.492C168.662 270.492 168.589 270.565 169.027 272.32C169.758 275.316 168.662 281.529 167.127 283.064C164.861 285.33 163.838 283.649 163.326 276.851C163.034 273.562 162.668 270.273 162.449 269.542C161.718 267.276 156.967 265.522 154.336 266.618Z" fill="#FFB800"/>
<path d="M130.727 269.761C130.727 270.127 131.019 270.492 131.458 270.492C131.823 270.492 132.7 271.369 133.431 272.393C134.455 274.001 134.674 276.12 134.747 283.43V292.566L137.159 294.686C138.475 295.855 140.01 296.806 140.667 296.806C142.349 296.806 144.834 295.417 146.222 293.59L147.465 292.055L148.196 293.955C149.219 296.806 153.166 297.756 156.382 296.002C157.698 295.344 157.771 295.051 156.821 294.028C154.847 291.689 154.116 287.815 154.116 279.556V271.223H152.143C150.973 271.223 149.365 271.004 148.488 270.785C146.807 270.346 146.807 270.346 146.807 279.19C146.807 288.181 146.222 290.958 144.249 290.958C142.422 290.958 141.691 288.327 141.691 281.456C141.691 274.366 140.667 271.15 138.109 269.761C136.282 268.811 130.727 268.811 130.727 269.761Z" fill="#FFB800"/>
<path d="M199.434 269.396C199.434 269.542 200.238 270.492 201.261 271.516C203.015 273.27 203.088 273.781 203.088 281.237C203.088 291.104 203.892 294.247 206.816 295.709C209.448 297.098 211.494 296.66 214.272 294.028C215.368 293.005 216.245 292.566 216.245 293.005C216.245 295.929 221.727 297.829 225.089 296.075C226.478 295.271 226.478 295.271 225.016 293.297C223.043 290.593 221.873 282.991 222.458 276.486L222.897 271.223H220.85C219.754 271.223 218.072 271.004 217.195 270.785C215.514 270.346 215.514 270.346 215.514 279.41C215.514 289.423 214.71 292.128 212.079 290.52C210.982 289.862 210.69 288.4 210.398 281.749C210.032 273.635 209.301 271.077 206.743 269.761C205.427 269.03 199.434 268.738 199.434 269.396Z" fill="#FFB800"/>
<path d="M59.8995 270.346C59.0955 270.931 59.1686 271.443 60.265 273.124C61.5076 274.951 61.6538 276.559 61.5076 285.842L61.3614 296.44L65.2353 296.513H69.1092L68.5245 293.955C68.159 292.493 67.8667 287.45 67.8667 282.699V274.147H70.7904C73.4948 274.147 73.641 274.293 74.1526 276.778C74.445 278.24 74.445 283.284 74.1526 288.035L73.641 296.66L77.2956 296.586L80.9502 296.513L80.8041 283.722L80.6579 270.858H75.9069C73.2755 270.858 68.89 270.565 66.0393 270.273C63.0425 269.908 60.4843 269.981 59.8995 270.346Z" fill="#FFB800"/>
<path d="M110.846 270.273C108.434 270.638 108.434 270.712 110.042 273.197C111.942 276.047 112.162 288.619 110.48 293.443C107.776 300.972 105.583 297.39 105.656 285.622V277.802H102.148H98.5663V282.918C98.5663 289.204 97.1776 292.42 94.5462 292.42C89.4297 292.42 89.1374 278.313 94.1808 275.609C95.131 275.097 96.739 274.951 97.9085 275.17C100.54 275.682 100.613 274.659 98.2009 272.32C94.8386 268.884 87.5293 270.785 84.9711 275.755C82.0474 281.31 83.1438 291.397 86.9446 295.051C89.7952 297.756 93.9615 297.902 96.5928 295.49L98.4201 293.809L98.8587 295.855C99.9551 300.168 101.051 300.972 106.533 301.557C116.109 302.507 116.986 301.191 117.424 285.622L117.717 274.805L120.056 275.024L122.321 275.243V285.988V296.733L126.268 296.659L130.142 296.513L129.704 293.955C129.485 292.493 129.265 286.865 129.265 281.383V271.442L122.029 271.004C118.009 270.712 114.354 270.346 113.77 270.273C113.258 270.127 111.942 270.127 110.846 270.273Z" fill="#FFB800"/>
<path d="M191.394 272.758C191.394 275.682 189.42 279.848 187.52 280.798C186.277 281.529 186.131 282.114 186.496 285.33C187.447 293.297 193.367 298.998 200.749 298.998C204.989 298.998 205.647 298.194 202.357 296.806C201.188 296.294 198.63 294.174 196.583 292.055C192.49 287.742 191.174 283.795 193.075 281.895C195.048 279.848 197.095 275.974 197.606 273.197L198.118 270.492H194.756C191.467 270.492 191.394 270.565 191.394 272.758Z" fill="#FFB800"/>
</svg>
