<svg width="697.000000" height="640.000000" viewBox="0 0 697 640" fill="none" xmlns="http://www.w3.org/2000/svg" xmlns:xlink="http://www.w3.org/1999/xlink">
	<desc>
			Created with Pixso.
	</desc>
	<defs/>
	<path id="Vector" d="M155.57 398.91C135 398.91 27.65 389.78 9.48 382.17C7.23 381.23 4.98 380.26 2.73 379.28C2.37 380.47 2 381.65 1.64 382.84C1.49 383.35 1.34 383.85 1.19 384.36C37.09 399.8 163.87 410.2 203.38 404.29C223.52 401.28 243.09 394.53 260.77 384.43C280.07 373.4 295.93 358.4 310.15 341.45C325.94 322.63 339.95 302.09 358.11 285.38C374.78 270.05 394.87 259.26 417.08 254.61C438.86 250.06 460.95 251.66 482.06 258.49C503.2 265.33 523.46 275.4 545.82 277.69C582.76 281.45 620.8 266.98 646.61 240.46C653.24 233.65 658.95 226.06 663.71 217.83C665.38 214.94 661.2 211.72 659.5 214.66C639.65 249.04 601.94 271.12 562.39 272.92C539.19 273.97 518.23 266.04 496.84 258.12C476.83 250.71 456.79 245.7 435.3 246.9C414.64 248.06 394.34 254.28 376.57 264.87C356.83 276.64 341.44 294.06 327.19 311.8C311.83 330.94 297.22 351.08 277.89 366.51C261.14 379.87 241.61 389.61 220.95 395.25C199.72 401.04 177.5 398.91 155.57 398.91Z" fill="#EEF4F6" fill-opacity="1.000000" fill-rule="nonzero"/>
	<path id="Vector" d="M559.71 294.69C565.51 298.27 568.46 305.07 570.16 311.67C571.83 318.2 572.61 324.97 572.47 331.7C572.34 337.29 571.55 343 568.85 347.9C567.34 350.64 564.88 353.27 561.75 353.42C559.11 353.55 556.71 351.87 554.91 349.92C550.32 344.94 548.39 338.07 547.45 331.36C545.8 319.55 546.8 307.38 550.35 296C547.85 306.3 542.53 315.9 535.14 323.49C529.47 329.3 521.98 334.13 513.86 333.84C509.96 333.7 505.83 332.13 503.86 328.77C501.52 324.78 502.84 319.66 504.9 315.52C511.87 301.45 527.02 291.8 542.73 291.44C536.56 292.55 530.21 290.16 525.05 286.62C517.94 281.74 512.3 274.28 510.99 265.76C510.21 260.61 511.55 254.47 516.19 252.09C518.32 251.01 520.8 250.89 523.18 251.07C531.18 251.71 538.75 255.62 544.36 261.35C549.96 267.09 553.63 274.56 555.37 282.38C553.84 274.18 557.16 265.77 561.82 258.85C566.06 252.56 572.63 246.6 580.16 247.44C586.83 248.19 592.03 254.63 592.4 261.33C592.76 268.03 588.92 274.52 583.46 278.43C578.01 282.33 571.16 283.9 564.45 284.03C571.31 281.02 579.31 280.74 586.36 283.27C593.41 285.8 599.41 291.11 602.79 297.79C604.52 301.23 605.5 305.58 603.35 308.77C601.3 311.82 597.18 312.63 593.51 312.72C581.12 313 568.7 307.7 560.33 298.56L559.71 294.69Z" fill="#EEF4F6" fill-opacity="1.000000" fill-rule="nonzero"/>
	<path id="Vector" d="M647.58 263.71C648.87 269.47 646.61 275.37 644.56 280.91C642.52 286.46 640.65 292.6 642.67 298.15C638.63 291.22 636.74 283.05 637.34 275.05C637.79 269 639.56 262.61 637.07 257.07C638.26 263.3 634.05 270.08 627.95 271.79C625.8 272.39 623.54 272.42 621.36 272.89C619.18 273.36 616.95 274.42 615.9 276.38C615.91 269.98 619.36 263.69 624.75 260.24C627.15 258.7 630.32 256.99 630.07 254.15C626.92 255.71 622.98 255.57 619.96 253.79C618.14 252.72 616.69 251.14 615.16 249.7C612.03 246.76 608.47 244.28 604.62 242.38C608.98 240.72 613.9 242.38 618.02 244.61C622.13 246.84 626.04 249.68 630.63 250.57C634.36 251.3 639.67 250.22 642.61 253.12C644.93 255.4 646.89 260.65 647.58 263.71Z" fill="#EEF4F6" fill-opacity="1.000000" fill-rule="nonzero"/>
	<path id="Vector" d="M471.47 243.51C470.43 242.89 468.85 242.46 468.2 243.48C467.94 243.89 467.94 244.4 467.98 244.88C468.15 246.75 468.86 248.57 470 250.06C467.21 245.24 462.35 241.66 456.92 240.41C457.63 242.48 458.35 244.55 459.06 246.62C455.7 243.81 451.67 241.81 447.4 240.81C446.99 240.71 446.55 240.62 446.15 240.75C445.25 241.03 444.97 242.26 445.37 243.11C445.76 243.96 446.59 244.52 447.38 245.02C444.67 243.12 441.62 241.72 438.42 240.92C436.92 240.54 435.19 240.34 433.94 241.24C432.69 242.15 432.68 244.56 434.18 244.93C430.03 243.49 425.69 242.58 421.31 242.23C420.56 242.17 419.65 242.21 419.26 242.86C418.67 243.86 419.94 244.91 421.01 245.39C418.37 244.57 415.58 244.23 412.82 244.38C411.14 244.48 409.33 244.82 408.24 246.1C407.15 247.36 407.38 249.78 408.98 250.27C401.22 251.27 392.76 252.61 387.49 258.4C388.17 258.97 389.14 259.18 389.99 258.94C384.2 258.11 378.08 259.95 373.72 263.84C373.16 264.35 372.57 265.12 372.94 265.78C373.17 266.19 373.67 266.35 374.13 266.47C375.64 266.87 377.16 267.28 378.68 267.68C372.81 265.53 366.12 265.72 360.38 268.2C358.74 268.91 356.9 270.5 357.62 272.13C358.02 273.04 359.06 273.47 360.01 273.77C361.81 274.35 363.64 274.8 365.5 275.15C365.01 274.99 364.51 274.83 364.02 274.68C363.12 276.46 364.69 278.71 366.61 279.23C368.54 279.75 370.58 279.06 372.42 278.29C370.86 280.49 370.43 283.46 371.31 286.02C371.43 286.38 371.61 286.77 371.94 286.97C372.58 287.36 373.38 286.85 373.93 286.34C376.65 283.77 378.53 280.32 379.2 276.65C379 278.41 379.17 280.2 379.69 281.9C379.82 282.32 380 282.78 380.39 283C381.16 283.43 382.04 282.67 382.56 281.96C384.67 279.14 386.38 276.04 387.67 272.78C388.05 273.69 387.71 274.72 387.7 275.71C387.69 276.69 388.37 277.89 389.34 277.69C389.72 277.62 390.02 277.34 390.29 277.07C392.54 274.84 394.48 272.31 396.05 269.55C395.59 270.51 395.6 271.69 396.06 272.65C400.46 270.74 404.18 267.27 406.41 263.02C406.36 264.38 406.3 265.75 406.24 267.12C408.96 267.86 411.78 266.26 413.8 264.29C415.82 262.33 417.42 259.91 419.76 258.33C419.35 259.33 418.92 260.38 419.01 261.46C419.1 262.54 419.85 263.66 420.93 263.76C421.54 263.82 422.13 263.55 422.68 263.29C426.1 261.68 429.45 259.96 432.74 258.12C432.24 259.37 432.85 260.96 434.06 261.56C435.02 262.03 436.14 261.9 437.19 261.72C441.2 260.99 445.06 259.48 448.5 257.3C447.73 258.13 446.97 258.97 446.19 259.8C452.23 259.51 458.21 258.06 463.71 255.54C462.14 256.33 460.74 257.43 459.6 258.76C459.35 259.06 459.1 259.41 459.16 259.8C459.24 260.39 459.95 260.62 460.53 260.71C465.6 261.49 470.91 260.48 475.34 257.9C475.26 257.61 474.73 257.8 474.74 258.11C474.74 258.42 475.03 258.64 475.31 258.79C479.11 260.89 483.81 259.19 481.69 254.7C479.51 250.08 475.88 246.11 471.47 243.51Z" fill="#EEF4F6" fill-opacity="1.000000" fill-rule="nonzero"/>
	<path id="Vector" d="M536.41 313.9C531.28 319.35 525.06 323.94 517.97 326.33C515.43 327.19 511.93 327.39 510.75 324.98C509.95 323.35 510.73 321.41 511.62 319.83C515.46 312.97 521.34 307.42 527.89 303.05C534.43 298.69 541.66 295.47 548.93 292.49C541.09 286.74 533.23 280.99 525.38 275.23C523.42 273.8 521.43 272.32 520.04 270.34C518.64 268.35 517.94 265.71 518.82 263.45C519.97 260.49 523.57 259.05 526.71 259.5C529.86 259.95 532.59 261.86 534.96 263.98C542.55 270.74 547.6 279.8 553.37 288.17C553.62 288.55 553.94 288.97 554.4 289.03C555.09 289.12 555.58 288.4 555.87 287.77C558.3 282.54 559.37 276.77 561.81 271.54C564.29 266.25 568.17 261.63 572.96 258.27C575.55 256.46 579.12 255.03 581.73 256.81C583.75 258.18 584.29 261.04 583.6 263.37C582.9 265.71 581.23 267.6 579.5 269.32C572.48 276.29 563.68 281.72 558.57 290.18C568.2 283.72 582.36 285.19 590.47 293.47C591.74 294.77 592.9 296.27 593.34 298.04C593.78 299.81 593.32 301.89 591.87 302.98C590.37 304.11 588.28 303.93 586.43 303.64C583.22 303.14 580.04 302.46 576.89 301.67C569.71 299.87 562.68 297.54 555.85 294.7C558.88 299.28 559.93 304.87 560.6 310.32C561.35 316.42 561.7 322.56 561.66 328.71C561.64 332.68 561.43 336.75 559.89 340.41C557.38 338.77 556.18 335.75 555.44 332.85C553.28 324.27 553.92 315.36 554.15 306.61C554.21 304.38 554.25 302.15 554.2 299.91C554.16 297.79 554.76 295.26 552.44 294.54C548.33 293.28 548.05 298.08 546.41 300.74C543.55 305.41 540.18 309.9 536.41 313.9Z" fill="#EEF4F6" fill-opacity="1.000000" fill-rule="nonzero"/>
</svg>
