<svg width="744" height="448" viewBox="0 0 744 448" fill="none" xmlns="http://www.w3.org/2000/svg">
<circle cx="206" cy="168" r="14" fill="#EEF4F6"/>
<circle cx="166" cy="173" r="10" fill="#EEF4F6"/>
<circle cx="137.5" cy="162.5" r="5.5" fill="#EEF4F6"/>
<path d="M845.571 136.252C851.405 126.163 828.986 118.576 819.776 110.036C811.269 102.15 801.256 91.6527 794.118 82.4721C775.547 58.5901 762.913 29.9775 757.709 0C741.949 47.2987 787.439 97.4147 776.402 146.074C778.513 132.149 771.177 118.383 761.716 108.083C752.256 97.7834 740.589 89.8052 730.994 79.6371C715.277 62.983 705.652 40.5185 704.353 17.4792C692.033 46.6843 695.954 82.3404 714.31 108.061C686.977 56.8172 595.821 78.72 567.625 27.9632C574.464 61.1354 603.395 88.3614 636.466 92.7366C610.269 105.797 580.661 86.8342 553.462 76.0913C529.204 66.5069 502.48 63.4613 476.736 67.3451C445.962 71.9881 413.474 86.0487 385.226 72.7999C391.621 84.3108 405.136 90.007 418.098 91.0822C431.061 92.1574 444.002 89.4673 456.96 88.3438C501.495 84.482 547.343 100.1 580.591 130.464C535.737 106.889 481.81 123.469 431.333 124.97C384.893 126.352 338.139 114.038 298.206 89.9017C319.088 116.074 348.791 134.839 381.128 142.291C429.619 153.46 485.562 140.966 525.797 170.654C485.325 157.317 441.359 159.647 399.523 167.516C357.686 175.384 316.972 188.589 275.2 196.809C188.949 213.783 98.6349 208.991 14.599 182.976C71.7686 228.006 146.024 250.005 218.043 243.256C268.291 238.547 317.81 220.467 367.989 225.878C268.732 212.225 173.21 263.789 74.6228 281.817C58.763 284.718 42.4498 286.846 27.9933 294.079C13.5368 301.311 0.962903 314.981 0 331.328C29.2973 300.095 77.0322 298.489 119.478 299.643C161.923 300.797 209.244 300.832 240.294 271.408C210.137 297.875 174.523 317.89 136.43 329.77C121.719 334.356 106.459 337.827 93.0648 345.524C79.6705 353.222 68.0811 366.238 66.7598 381.817C97.1021 356.487 134.75 340.311 173.767 335.835C244.547 327.712 317.235 357.167 386.461 340.122C347.159 345.081 307.857 350.036 268.555 354.995C252.604 357.004 232.776 362.67 230.587 378.85C292.731 339.113 376.676 378.859 446.735 356.552C413.439 372.461 380.139 388.369 346.844 404.277C401.042 376.059 465.535 380.268 524.717 365.685C567.702 355.095 611.223 334.285 654.225 344.791C620.554 348.763 589.642 371.618 575.557 402.956C593.174 379.702 624.626 372.224 653.5 372.404C682.374 372.583 685.557 450.203 714.31 447.5C763.789 442.853 835.394 338.441 856.241 292.6C877.088 246.758 891.341 195.049 862.761 153.736" fill="#EEF4F6"/>
</svg>
