<svg width="530" height="443" viewBox="0 0 530 443" fill="none" xmlns="http://www.w3.org/2000/svg">
<path d="M450.737 204.186C449.759 195.88 450.548 187.437 449.476 179.142C448.412 170.85 445.043 162.235 437.975 157.754C438.501 170.785 437.868 183.871 436.086 196.794C426.386 187.836 426.166 172.965 424.15 159.911C421.204 140.805 412.887 122.562 400.392 107.806C390.154 95.7236 377.091 85.7841 369.585 71.8457C377.982 88.6638 386.149 105.605 394.072 122.652C388.489 110.983 376.779 103.799 366.688 95.6993C356.605 87.6006 346.997 76.139 348.63 63.3097C345.646 76.6177 354.363 89.5368 363.202 99.9203C372.04 110.304 382.046 121.498 382.253 135.141C378.941 125.649 367.231 120.066 357.768 123.461C359.753 125.022 360.927 127.559 360.847 130.079C348.96 129.773 338.41 118.701 338.678 106.815C338.398 111.059 332.435 112.825 328.73 110.735C325.024 108.645 323.171 104.42 321.576 100.475C316.913 104.872 307.625 100.691 307.832 94.2796C306.821 98.5412 301.499 100.556 297.239 99.5368C292.979 98.518 289.585 95.3855 286.405 92.3716C270.589 98.2758 253.101 91.9901 237.419 85.7521C228.874 86.1081 220.239 83.251 213.592 77.8717C220.081 82.7679 226.564 87.6552 233.052 92.5514C225.435 91.3421 217.817 90.1327 210.2 88.9234C220.129 94.0953 230.067 99.2613 239.996 104.433C238.131 106.282 235.217 106.999 232.704 106.215C237.519 105.457 242.476 105.617 247.234 106.679C248.981 107.068 250.858 107.696 251.775 109.232C252.694 110.761 251.81 113.316 250.023 113.249C257.3 113.809 264.294 117.456 268.919 123.105C266.885 124.96 263.909 125.717 261.24 125.064C268.884 128.562 275.39 134.504 279.578 141.792C276.175 141.991 272.774 142.183 269.371 142.382C276.552 142.18 283.712 146.035 287.505 152.135C293.261 154.32 298.505 157.823 302.732 162.299C296.132 168.446 286.211 161.084 277.941 157.494C265.094 151.927 250.069 156.492 236.375 153.563C225.1 151.154 215.605 143.883 205.625 138.111C195.645 132.339 183.632 127.87 172.749 131.676C161.865 135.481 155.311 151.055 163.584 159.083C165.993 161.417 169.822 162.757 172.737 161.099C175.652 159.44 175.804 154.129 172.587 153.184C173.814 156.306 167.143 156.876 166.7 153.547C166.256 150.219 169.91 147.763 173.229 147.287C183.974 145.753 193.093 155.647 197.009 165.771C198.895 170.654 199.975 176.521 197.014 180.837C193.729 185.634 186.825 186.38 181.168 185.019C175.513 183.65 170.309 180.684 164.581 179.684C156.462 178.261 148.234 180.909 140.465 183.678C132.704 186.448 124.665 189.424 116.453 188.666C108.242 187.907 99.8312 182.144 99.0636 173.94C95.8985 183.794 102.433 194.753 111.523 199.707C120.614 204.661 131.498 204.878 141.816 204.119C152.133 203.359 162.561 201.725 172.768 203.403C184.127 205.269 195.574 211.176 206.581 207.8C217.84 204.344 225.045 191.978 236.623 189.833C229.871 210.403 213.209 227.467 192.809 234.71C212.535 236.3 232.663 224.506 240.917 206.514C241.32 227.252 223.725 246.731 203.055 248.427C211.772 252.863 222.668 250.953 231.026 245.878C239.386 240.796 245.671 232.971 251.46 225.094C257.716 231.722 250.649 242.015 244.593 248.828C226.622 269.053 215.825 295.527 214.528 322.553C223.309 300.856 238.493 282.46 253.441 264.447C260.492 255.952 267.544 247.457 274.595 238.969C279.326 249.704 274.977 262.392 268.257 272.01C261.531 281.619 252.536 289.55 246.387 299.54C243.138 304.819 240.685 310.921 241.3 317.087C241.916 323.254 246.309 329.341 252.434 330.304C257.884 331.157 263.147 327.959 267.255 324.281C274.717 317.598 280.212 308.996 287.402 302.023C294.593 295.049 304.539 289.611 314.334 291.714C324.129 293.818 331.307 306.458 325.285 314.466C321.378 319.662 312.792 323.749 315.27 329.752C328.457 322.758 330.704 303.98 342.615 294.973C354.049 286.325 370.723 289.532 383.111 296.741C375.654 314.307 351.733 317.105 337.965 330.315C331.868 336.162 327.885 344.171 326.885 352.557C326.233 358.077 326.822 363.748 325.526 369.149C324.23 374.55 320.269 379.943 314.733 380.39C310.194 380.757 306.155 377.789 302.289 375.384C298.423 372.979 293.415 371.009 289.473 373.294C285.531 375.579 286.793 383.566 291.279 382.728C289.419 380.762 286.473 379.45 283.976 380.5C281.479 381.551 280.659 385.659 283.042 386.946C281.676 384.847 278.324 384.435 276.487 386.144C274.65 387.853 274.825 391.22 276.819 392.738C273.741 390.38 269.468 396.623 272.773 398.642C270.406 398.676 268.045 398.719 265.678 398.753C266.074 406.471 277.393 408.421 284.099 404.586C290.804 400.75 295.5 393.801 302.608 390.765C301.551 394.244 300.602 398.379 302.873 401.223C305.143 404.066 311.364 401.845 309.817 398.553C310.842 403.099 319.386 401.731 318.946 397.093C316.421 398.208 320.24 402.22 322.37 400.462C324.501 398.703 323.989 395.369 323.287 392.695C326.569 395.928 332.517 392.948 334.272 388.687C336.019 384.424 335.247 379.606 335.663 375.021C336.501 365.737 342.717 357.131 351.266 353.427C351.774 357.251 352.28 361.082 352.787 364.906C355.409 364.508 357.453 361.82 357.148 359.193C356.972 362.124 360.194 364.725 363.024 363.931C365.854 363.137 367.253 359.243 365.58 356.83C365.843 358.775 369.196 358.244 369.821 356.382C370.447 354.52 369.476 352.552 368.926 350.666C366.052 340.816 375.728 330.781 385.936 329.716C396.145 328.652 405.915 333.892 414.291 339.833C422.667 345.773 430.66 352.688 440.441 355.801C448.867 339.276 457.299 322.76 465.726 306.235C471.883 294.17 483.159 279.33 484.458 265.508C485.532 254.009 477.215 248.119 469.753 240.879C459.605 230.997 452.413 218.431 450.737 204.186Z" fill="#FFD1A6"/>
<path d="M480.081 290.504C483.654 276.845 479.749 261.466 470.098 251.161C464.306 244.976 456.773 240.68 450.649 234.821C444.525 228.962 439.694 220.498 441.706 212.264C442.089 210.699 442.696 209.009 442.024 207.552C440.792 204.881 436.315 205.79 435.025 208.425C433.727 211.06 434.559 214.204 435.411 217.014C433.147 218.985 430.271 215.363 429.465 212.478C424.434 194.587 419.404 176.697 414.372 158.815C413.047 154.118 411.688 149.323 408.912 145.308C406.136 141.293 401.652 138.13 396.77 138.254C398.397 142.657 400.025 147.06 401.652 151.464C397.667 149.434 393.683 147.396 389.698 145.366C390.353 149.41 391.721 153.341 393.709 156.919C389.261 158.66 384.87 154.32 382.424 150.224C379.979 146.12 377.131 141.179 372.365 140.904C372.809 148.179 375.841 155.271 380.792 160.624C387.084 167.421 396.011 171.178 402.858 177.409C409.706 183.64 414.142 194.67 408.518 202.02C407.58 203.246 406.366 204.319 404.896 204.781C403.507 205.222 402.008 205.089 400.581 204.825C389.126 202.71 380.728 192.696 375.657 182.208C370.586 171.72 367.799 160.178 361.993 150.074C360.696 147.82 358.855 145.406 356.253 145.31C354.769 145.256 353.375 145.995 351.916 146.283C347.845 147.079 343.781 144.122 341.926 140.41C340.071 136.698 339.919 132.392 339.796 128.245C339.459 131.727 334.231 132.672 331.534 130.442C328.846 128.207 328.129 124.434 327.588 120.979C320.007 124.436 312.618 116.39 305.152 112.689C291.677 106.018 273.255 113.373 261.649 103.819C273.642 112.062 286.97 118.345 300.961 122.343C305.198 123.557 310.341 125.469 310.869 129.848C304.801 125.073 296.578 123.162 289.029 124.771C297.228 131.106 306.94 135.469 317.122 137.395C312.8 138.219 308.486 139.036 304.164 139.86C318.544 150.004 339.5 150.325 350.375 164.158C345.54 165.21 340.353 164.546 335.94 162.31C342.975 167.55 349.247 173.822 354.489 180.857C356.953 184.159 359.247 188.601 357.213 192.18C354.153 197.549 345.645 194.587 341.604 189.91C337.563 185.233 333.831 178.9 327.656 178.617C317.219 178.15 312.83 195.305 302.382 195.127C296.548 195.026 292.503 189.39 289.944 184.146C287.385 178.908 284.766 172.916 279.336 170.787C271.743 167.812 262.738 174.116 255.239 170.892C251.387 169.241 248.631 165.275 244.511 164.521C236.801 163.118 229.94 173.689 222.656 170.821C218.338 169.116 217.076 163.788 214.855 159.713C212.635 155.638 206.255 152.61 203.825 156.563C207.396 158.987 210.572 162.452 211.268 166.719C211.964 170.986 209.321 175.908 205.057 176.552C211.788 178.921 219.05 179.754 226.147 178.968C231.317 178.395 236.752 177.016 241.573 178.965C246.393 180.921 249.163 188.291 244.918 191.298C245.954 192.934 248.471 192.876 250.117 191.865C251.764 190.855 252.894 189.191 254.336 187.895C258.351 184.299 265.006 184.124 269.2 187.513C273.394 190.902 274.626 197.442 271.945 202.128C270.08 205.387 266.757 207.525 264.339 210.4C261.922 213.275 260.559 217.843 263.068 220.641C267.633 217.367 272.197 214.1 276.762 210.827C279.68 217.789 274.346 226.828 266.838 227.64C276.988 226.327 289.694 227.338 294.005 236.62C298.425 246.13 290.598 256.55 283.33 264.114C285.783 270.48 298.945 267.718 299.496 274.523C299.856 278.985 293.844 280.764 289.372 280.631C284.9 280.498 279 281.005 278.014 285.371C279.76 287.414 282.816 287.653 285.483 287.302C300.27 285.357 310.689 267.736 305.251 253.843C304.265 251.328 302.847 248.866 302.87 246.165C302.922 240.505 309.269 235.918 308.151 230.365C307.829 228.762 306.884 227.251 307.056 225.629C307.464 221.825 312.897 221.357 316.538 222.522C321.774 224.192 327.159 227.646 328.154 233.044C329.68 241.289 320.26 248.807 322.194 256.964C323.188 261.159 327.011 264.215 328.149 268.376C329.213 272.255 327.765 276.401 328.27 280.392C328.775 284.384 333.291 288.434 336.49 285.996C337.913 284.911 338.369 283.015 339.052 281.364C341.064 276.494 345.944 272.944 351.198 272.526C357.551 272.016 363.532 275.709 369.899 276.03C379.01 276.497 387.593 270.042 396.641 271.225C399.719 271.629 403.194 273.72 402.947 276.821C402.649 280.686 397.489 281.598 393.622 281.859C389.755 282.12 384.689 284.706 386.062 288.332C386.746 290.121 388.78 290.964 390.655 291.369C395.449 292.401 400.41 291.833 405.313 291.882C410.215 291.931 415.42 292.744 419.11 295.965C422.801 299.187 424.121 305.469 420.737 309.012C416.93 312.994 410.436 311.369 404.984 310.569C394.42 309.027 383.269 312.045 374.929 318.709C369.323 323.189 364.168 329.55 356.999 329.77C363.343 332.316 370.418 328.668 375.857 324.531C381.296 320.394 386.786 315.408 393.604 314.913C399.1 314.511 404.306 317.156 409.174 319.727C421.779 326.373 434.385 333.02 446.983 339.665C449.038 340.75 451.24 341.871 453.565 341.699C455.687 341.547 457.58 340.332 459.311 339.085C473.436 328.903 483.905 313.767 488.456 296.958C488.539 298.331 488.624 299.696 488.708 301.069" fill="#E8A261"/>
<path d="M426.167 225.317C414.327 208.744 415.555 183.552 399.198 171.419C397.236 169.969 394.57 168.757 392.457 169.96C390.99 170.799 390.311 172.543 389.972 174.193C388.573 181.099 391.32 188.074 392.99 194.922C394.659 201.771 394.881 209.983 389.737 214.806C387.663 196.177 384.424 175.405 369.456 164.119C370.073 176.845 370.699 189.565 371.316 202.291C371.478 205.649 369.414 210.547 366.48 208.899C365.404 208.29 364.979 206.981 364.693 205.783C362.553 196.957 361.582 185.84 353.195 182.38C354.107 188.949 352.847 195.806 349.661 201.626C342.595 180.985 321.681 168.756 301.72 159.955C281.759 151.154 260.017 143.115 246.896 125.686C260.894 162.804 314.859 170.292 331.798 206.164C303.996 173.834 260.429 160.169 227.065 133.623C211.236 121.019 196.887 105.049 177.395 99.6048C160.118 94.7784 138.399 97.7249 127.424 83.5433C129.794 93.9312 141.453 99.0743 151.877 101.286C162.302 103.498 173.937 104.851 181.096 112.744C168.346 102.491 149.802 109.607 133.456 110.243C120.058 110.766 106.524 106.313 96.042 97.9448C99.3568 111.568 116.076 116.147 129.94 118.251C115.576 115.574 101.152 121.138 87.1667 125.362C73.1817 129.587 57.1497 132.292 44.6704 124.689C51.6636 135.339 66.9193 135.54 79.6162 134.565C95.4946 133.347 111.38 132.131 127.259 130.913C122.447 133.687 119.223 139.032 119.002 144.582C124.673 141.916 129.667 137.822 133.404 132.792C131.222 137.789 130.262 143.31 130.621 148.752C136.612 140.509 143.268 131.767 153.012 128.773C157.603 127.358 162.489 127.373 167.289 127.394C177.548 127.443 188.015 127.525 197.742 130.795C207.47 134.058 216.508 141.117 219.432 150.947C215.989 153.031 211.349 152.934 208 150.706C216.204 155.923 226.036 158.54 235.749 158.091C240.373 157.878 245.251 157.033 249.445 158.974C257.491 162.689 258.78 174.413 266.397 178.948C268.942 180.466 271.947 181.009 274.602 182.318C288.236 189.074 287.959 212.813 302.705 216.592C309.075 218.224 317.921 216.134 320.699 222.096C323.272 227.619 317.05 233.051 311.608 235.793C306.167 238.535 299.582 243.045 301.132 248.935C304.249 252.933 310.648 252.072 315.055 249.564C319.462 247.056 323.323 243.269 328.295 242.259C333.267 241.248 339.629 245.269 338.192 250.137C337.046 254.027 332.224 255.136 328.287 256.104C324.35 257.072 319.719 259.942 320.638 263.892C321.442 267.375 325.935 268.378 329.501 268.127C335.111 267.732 340.613 265.937 345.381 262.956C348.935 260.733 352.123 257.84 356.022 256.283C369.876 250.73 384.173 263.838 399.075 264.674C405.692 265.044 412.242 262.94 418.866 263.197C425.484 263.444 432.92 267.338 433.528 273.932C424.524 273.585 415.566 279.056 411.753 287.212C424.74 287.926 437.771 287.867 450.753 287.039C451.723 286.977 452.759 286.889 453.54 286.306C454.5 285.59 454.835 284.315 455.103 283.141C458.213 269.498 459.806 260.63 450.207 249.316C442.878 240.692 432.527 234.778 426.167 225.317Z" fill="#E37611"/>
<path d="M414.203 214.575C413.092 205.307 410.965 194.538 402.573 190.441C404.754 202.968 405.063 215.818 403.494 228.437C403.049 231.998 401.752 236.311 398.221 236.967C394.706 237.619 391.964 234.094 390.137 231.023C387.543 226.66 384.958 222.299 382.366 217.929C380.752 215.214 377.965 212.078 375.073 213.343C372.339 214.546 372.537 218.578 373.9 221.243C375.263 223.909 377.37 226.528 376.973 229.493C372.609 227.404 368.245 225.307 363.881 223.218C360.953 221.817 357.012 220.577 354.831 222.985C352.904 225.113 353.923 228.516 355.377 230.992C360.142 239.129 368.361 244.855 377.241 248.028C386.121 251.201 395.67 252.015 405.103 252.055C423.816 252.129 415.521 225.561 414.203 214.575Z" fill="#E8A261"/>
<path d="M273.222 298.017C271.183 305.878 266.263 312.96 259.605 317.609C258.931 318.075 258.221 318.533 257.419 318.675C254.617 319.168 252.663 315.804 252.492 312.966C252.131 307.14 255.302 301.677 259.033 297.183C260.668 295.212 262.5 293.295 264.853 292.277C267.205 291.259 270.186 291.338 272.069 293.071C273.951 294.804 274.039 298.346 271.87 299.714" fill="#E37611"/>
<path d="M196.001 197.543C189.605 196.672 183.817 193.362 177.587 191.643C172.235 190.173 166.558 189.895 161.09 190.854C149.163 192.946 137.329 200.742 125.853 196.853C136.393 194.918 145.296 187.299 155.904 185.8C164.328 184.615 172.72 187.425 180.985 189.435C189.25 191.446 198.46 192.546 205.857 188.348C206.996 187.698 208.137 186.918 209.448 186.837C215.299 186.505 209.361 193.77 207.692 195.053C204.569 197.46 199.793 198.056 196.001 197.543Z" fill="#E37611"/>
<path d="M364.445 356.095C363.199 356.785 361.56 355.959 360.859 354.725C360.158 353.492 360.145 351.995 360.156 350.572C359.885 352.971 359.621 355.372 359.351 357.771C357.123 358.07 355.906 355.211 355.81 352.962C355.715 350.713 355.683 347.941 353.676 346.919C352.199 346.17 350.417 346.855 348.956 347.626C343.86 350.321 339.364 354.145 335.903 358.746C333.532 357.899 333.9 354.461 334.725 352.086C336.009 348.392 337.318 344.641 339.583 341.452C341.848 338.264 345.24 335.657 349.127 335.254C353.796 334.774 360.232 337.009 362.988 340.851C364.613 343.116 367.1 354.631 364.445 356.095Z" fill="#E37611"/>
<path d="M430.543 79.0413C426.167 80.1378 422.373 83.3482 420.566 87.4845C418.925 91.2471 418.912 95.5358 419.456 99.604C421.368 113.971 428.143 129.33 432.796 142.931C441.812 133.993 420.857 81.4649 430.543 79.0413Z" fill="#002534"/>
<path d="M391.365 63.1562C391.644 68.2608 391.915 73.3712 392.194 78.4758C392.331 81.0236 392.517 83.7114 393.924 85.834C397.026 90.4955 403.703 91.7351 407.345 96.1806C409.664 99.0106 410.762 102.751 412.664 105.599C415.446 87.0633 398.58 77.4055 391.365 63.1562Z" fill="#002534"/>
<path d="M344.819 94.7164C340.538 91.5401 335.855 88.883 331.897 85.3102C327.938 81.7374 324.681 76.9689 324.407 71.6431C324.733 79.3622 327.667 86.9488 332.629 92.8714C335.175 95.9143 338.215 98.5026 341.348 100.933C345.413 104.082 353.986 112.421 358.629 109.254C355.593 103.517 350.045 98.591 344.819 94.7164Z" fill="#002534"/>
<path d="M185.525 163.336C187.138 164.687 188.381 166.478 189.073 168.46C189.496 169.662 189.711 170.992 189.333 172.213C188.561 174.667 185.547 175.815 183.023 175.359C180.492 174.901 178.359 173.273 176.343 171.674C178.507 173.692 182.362 172.088 183.609 169.397C184.855 166.714 184.314 163.574 183.741 160.672" fill="#002534"/>
<path d="M241.261 120.459C235.786 119.578 230.636 116.806 226.901 112.718C235.805 114.754 245.497 116.048 254.023 119.19C251.76 122.41 245.462 120.999 241.261 120.459Z" fill="#002534"/>
<path d="M203.321 98.2572C196.889 93.3491 191.514 87.0313 184.552 82.9083C180.007 80.2167 174.937 78.5566 169.917 76.9213C173.886 72.9713 180.656 74.206 185.526 76.9612C192.341 80.8179 197.353 86.8347 203.323 91.7594C209.55 96.8955 216.128 98.2077 222.703 101.726C220.535 109.661 207.061 101.113 203.321 98.2572Z" fill="#002534"/>
<path d="M239.287 74.854C229.787 66.9079 220.538 57.601 208.481 54.763C215.927 52.82 223.91 55.3729 230.395 59.5022C236.89 63.6256 242.272 69.2398 248.12 74.2402C256.231 81.1786 264.057 83.1643 273.632 86.4278C262.214 92.1365 247.688 81.8797 239.287 74.854Z" fill="#002534"/>
<path d="M382.883 339.394C381.084 340.987 380.015 343.238 379.22 345.496C377.227 351.166 376.722 357.496 378.681 363.183C380.64 368.862 385.274 373.762 391.106 375.204C392.553 375.564 394.707 375.128 394.576 373.647C390.386 374.58 386.439 371.102 384.38 367.334C382.475 363.842 381.46 359.751 382.218 355.846C384.95 341.868 401.265 352.145 403.468 345.911C406.588 337.066 387.158 335.603 382.883 339.394Z" fill="#002534"/>
<path d="M440.755 252.345C441.376 248.275 442.836 244.224 442.249 240.148C441.661 236.071 437.874 232.01 433.914 233.135C437.555 217.412 441.203 201.69 444.844 185.967C436.902 201.506 431.113 218.141 427.675 235.253C421.901 226.75 427.446 214.955 424.737 205.045C423.18 199.345 419.033 194.778 416.118 189.632C405.914 171.632 411.16 147.442 399.454 130.382C401.741 151.948 404.033 173.524 406.32 195.091C406.638 198.081 406.932 201.234 405.691 203.971C404.449 206.709 401.095 208.734 398.384 207.436C397.567 204.916 396.743 202.394 395.925 199.881C394.422 200.866 392.919 201.852 391.408 202.835C383.12 187.372 374.525 171.526 361.127 160.203C359.746 159.036 358.269 157.858 357.576 156.19C356.274 153.061 358.157 149.629 359.453 146.496C360.749 143.363 361.03 138.92 358.004 137.392C357.874 142.079 355.792 146.683 352.349 149.862C349.765 149.049 347.97 146.246 348.313 143.554C341.303 145.345 335.179 138.628 328.199 136.708C317.037 133.647 305.801 143.276 294.303 141.889C295.535 146.352 300.777 148.46 305.406 148.494C310.036 148.528 314.62 147.15 319.237 147.519C321.764 147.723 324.495 148.411 326.721 147.185C328.139 146.397 329.236 144.865 330.854 144.707C333.697 144.429 334.819 148.91 332.884 151.005C330.948 153.101 327.753 153.295 324.898 153.356C329.516 152.744 334.388 152.166 338.698 153.946C341.698 155.177 344.134 157.448 346.504 159.667C351.915 164.743 357.327 169.819 362.731 174.893C367.708 179.562 373.007 184.861 373.651 191.662C373.833 193.552 373.69 195.646 374.896 197.116C376.257 198.778 378.71 198.891 380.705 199.695C385.866 201.787 387.163 209.835 382.917 213.432C388.753 215.679 394.816 217.311 400.989 218.307C399.899 224.492 397.952 230.516 395.212 236.171C394.039 238.6 391.215 241.318 389.127 239.614C388.473 239.08 388.163 238.237 387.678 237.545C385.62 234.597 381.031 235.024 377.874 236.742C374.71 238.459 371.986 241.136 368.475 241.927C363.543 243.045 358.686 240.146 354.456 237.371C346.62 232.234 338.394 226.66 334.501 218.135C332.888 214.6 331.806 210.342 328.393 208.485C326.557 207.49 324.389 207.41 322.325 207.112C314.638 205.981 307.906 201.543 301.363 197.357C294.819 193.17 287.837 188.997 280.082 188.527C272.327 188.057 263.703 192.574 262.237 200.21C271.38 190.193 289.676 191.028 297.875 201.822C299.659 204.172 301.039 206.91 303.396 208.682C309.361 213.162 318.957 209.709 324.598 214.592C327.171 216.828 328.242 220.28 329.699 223.362C334.194 232.879 342.948 239.552 351.384 245.849C358.838 251.41 366.658 257.142 375.819 258.722C385.856 260.452 397.942 257.549 404.99 264.907C406.524 266.502 407.641 268.468 409.261 269.974C414.824 275.141 422.836 272.964 429.624 273.443C438.165 274.044 440.651 278.248 447.095 282.162C449.473 272.728 439.101 263.209 440.755 252.345Z" fill="#002534"/>
<path d="M258.88 340.701C266.415 338.185 271.158 330.992 276.146 324.82C281.03 318.781 286.663 313.341 292.867 308.664C297.299 305.326 302.405 302.265 307.949 302.44C312.299 302.572 317.011 305.626 317.016 309.979C317.022 313.467 314.157 316.201 311.511 318.479C313.8 315.012 311.019 309.885 307.018 308.794C303.017 307.703 298.717 309.742 295.813 312.713C292.909 315.684 291.061 319.483 288.923 323.041C284.841 329.835 279.58 335.915 273.441 340.926C268.571 344.899 262.959 348.274 256.74 349.155C250.522 350.036 243.608 347.976 239.941 342.874C237.726 339.789 236.746 335.635 237.858 332.075C242.291 338.975 250.673 343.437 258.88 340.701Z" fill="#002534"/>
<path d="M159.798 231.934C154.808 234.872 148.808 236.906 143.246 235.295C147.384 236.037 150.203 231.471 152.871 228.216C158.028 221.924 166.218 219.154 173.967 216.68C178.578 215.208 190.228 211.009 194.372 215.553C198.812 220.423 195.206 220.528 191.585 221.328C186.556 222.435 182.164 219.627 176.491 221.673C170.339 223.893 165.369 228.65 159.798 231.934Z" fill="#002534"/>
<path d="M347.36 303.842C351.182 297.319 360.106 294.363 367.07 297.307C369.221 298.219 371.339 301.017 369.619 302.596C369.096 303.075 368.36 303.237 367.658 303.376C360.42 304.846 353.19 306.311 345.952 307.781C345.99 304.225 348.862 300.911 352.38 300.359" fill="#002534"/>
<path d="M335.433 162.003C328.011 163.476 320.124 162.466 313.311 159.185C312.143 158.619 310.802 157.521 311.271 156.302C311.494 155.71 312.084 155.358 312.645 155.077C320.084 151.371 330.023 153.717 335.013 160.358C334.106 162.44 330.155 161.214 330.584 158.984" fill="#E37611"/>
<path d="M284.561 135.719C290.396 132.342 298.492 133.53 303.116 138.444C303.921 139.299 304.663 140.555 304.1 141.594C303.583 142.55 302.29 142.696 301.204 142.682C295.04 142.623 288.892 141.304 283.246 138.833C282.344 138.434 281.288 137.721 281.477 136.755C281.554 136.364 281.831 136.042 282.122 135.77C283.92 134.107 286.763 133.714 288.944 134.823" fill="#E37611"/>
<path d="M328.313 381.244C329.945 383.357 330.174 386.451 328.882 388.781C328.635 389.222 328.311 389.665 327.833 389.832C326.365 390.364 325.45 388.192 324.083 387.426C322.342 386.457 320.096 388.216 319.824 390.193C319.544 392.169 320.55 394.075 321.519 395.813C319.267 396.904 316.188 394.982 316.18 392.483C315.908 394.414 314.792 396.203 313.188 397.306C312.239 396.132 311.28 394.963 310.33 393.788C309.783 394.861 309.243 395.935 308.695 397.008C305.885 395.201 307.081 390.462 309.906 388.678C312.731 386.895 316.302 387.012 319.62 386.62C322.938 386.229 326.651 384.88 327.759 381.725C329.089 382.446 330.115 383.704 330.551 385.154" fill="#E37611"/>
<path d="M285.385 388.876C284.724 389.865 284.976 391.355 285.924 392.07C284.531 391.827 283.131 391.576 281.738 391.334C281.209 392.786 281.484 394.51 282.44 395.732C281.485 394.426 279.327 394.256 278.178 395.387C277.029 396.518 277.166 398.675 278.452 399.655C277.019 399.696 275.595 400.237 274.49 401.147C274.821 402.859 276.862 403.781 278.585 403.513C286.5 402.267 307.886 378.657 288.495 385.478C289.227 386.28 289.775 388.097 290.81 389.073C290.385 389.166 285.355 388.909 285.385 388.876Z" fill="#E37611"/>
<path d="M400.398 299.953C403.468 299.697 406.537 299.44 409.606 299.183C410.954 299.072 412.482 299.019 413.454 299.96C414.555 301.027 414.343 302.97 413.349 304.131C412.348 305.291 410.796 305.822 409.293 306.102C403.687 307.142 397.615 305.278 393.55 301.27C396.675 298.894 400.493 297.435 404.409 297.122" fill="#E37611"/>
<path d="M114.94 164.484C121.696 162.659 127.606 168.982 125.43 175.628C123.191 182.477 113.947 183.117 109.964 177.517C109.49 176.849 109.278 176.171 109.259 175.524C107.649 171.07 109.884 165.846 114.94 164.484Z" fill="#002534"/>
</svg>
