<svg width="530" height="443" viewBox="0 0 530 443" fill="none" xmlns="http://www.w3.org/2000/svg">
<path d="M79.2718 204.186C80.2492 195.88 79.4604 187.437 80.5322 179.142C81.5966 170.85 84.9659 162.235 92.034 157.754C91.5073 170.785 92.1409 183.871 93.9226 196.794C103.623 187.836 103.843 172.965 105.859 159.911C108.804 140.805 117.122 122.562 129.617 107.806C139.854 95.7236 152.918 85.7841 160.424 71.8457C152.026 88.6638 143.86 105.605 135.936 122.652C141.519 110.983 153.23 103.799 163.321 95.6993C173.404 87.6006 183.012 76.139 181.379 63.3097C184.363 76.6177 175.645 89.5368 166.807 99.9203C157.968 110.304 147.963 121.498 147.755 135.141C151.067 125.649 162.778 120.066 172.24 123.461C170.255 125.022 169.082 127.559 169.162 130.079C181.048 129.773 191.599 118.701 191.33 106.815C191.61 111.059 197.573 112.825 201.279 110.735C204.984 108.645 206.838 104.42 208.433 100.475C213.095 104.872 222.383 100.691 222.176 94.2796C223.188 98.5412 228.51 100.556 232.77 99.5368C237.03 98.518 240.424 95.3855 243.603 92.3716C259.419 98.2758 276.908 91.9901 292.589 85.7521C301.134 86.1081 309.77 83.251 316.417 77.8717C309.928 82.7679 303.445 87.6552 296.956 92.5514C304.574 91.3421 312.191 90.1327 319.808 88.9234C309.88 94.0953 299.942 99.2613 290.013 104.433C291.877 106.282 294.792 106.999 297.305 106.215C292.49 105.457 287.532 105.617 282.775 106.679C281.027 107.068 279.151 107.696 278.233 109.232C277.314 110.761 278.198 113.316 279.986 113.249C272.709 113.809 265.715 117.456 261.09 123.105C263.124 124.96 266.1 125.717 268.769 125.064C261.125 128.562 254.619 134.504 250.43 141.792C253.833 141.991 257.235 142.183 260.638 142.382C253.457 142.18 246.296 146.035 242.503 152.135C236.748 154.32 231.503 157.823 227.277 162.299C233.876 168.446 243.798 161.084 252.067 157.494C264.915 151.927 279.94 156.492 293.634 153.563C304.909 151.154 314.403 143.883 324.383 138.111C334.363 132.339 346.376 127.87 357.26 131.676C368.144 135.481 374.698 151.055 366.424 159.083C364.016 161.417 360.186 162.757 357.271 161.099C354.356 159.44 354.204 154.129 357.421 153.184C356.194 156.306 362.865 156.876 363.309 153.547C363.752 150.219 360.098 147.763 356.779 147.287C346.034 145.753 336.916 155.647 332.999 165.771C331.113 170.654 330.033 176.521 332.994 180.837C336.279 185.634 343.184 186.38 348.841 185.019C354.496 183.65 359.7 180.684 365.427 179.684C373.547 178.261 381.775 180.909 389.543 183.678C397.304 186.448 405.344 189.424 413.555 188.666C421.767 187.907 430.177 182.144 430.945 173.94C434.11 183.794 427.576 194.753 418.485 199.707C409.395 204.661 398.51 204.878 388.193 204.119C377.875 203.359 367.448 201.725 357.24 203.403C345.882 205.269 334.434 211.176 323.428 207.8C312.168 204.344 304.963 191.978 293.386 189.833C300.137 210.403 316.799 227.467 337.2 234.71C317.473 236.3 297.346 224.506 289.092 206.514C288.688 227.252 306.284 246.731 326.953 248.427C318.236 252.863 307.341 250.953 298.982 245.878C290.623 240.796 284.338 232.971 278.549 225.094C272.292 231.722 279.36 242.015 285.415 248.828C303.386 269.053 314.184 295.527 315.48 322.553C306.7 300.856 291.516 282.46 276.568 264.447C269.516 255.952 262.464 247.457 255.414 238.969C250.683 249.704 255.031 262.392 261.751 272.01C268.477 281.619 277.472 289.55 283.622 299.54C286.871 304.819 289.323 310.921 288.708 317.087C288.093 323.254 283.7 329.341 277.574 330.304C272.125 331.157 266.862 327.959 262.754 324.281C255.291 317.598 249.797 308.996 242.606 302.023C235.416 295.049 225.469 289.611 215.674 291.714C205.88 293.818 198.702 306.458 204.723 314.466C208.631 319.662 217.217 323.749 214.738 329.752C201.552 322.758 199.304 303.98 187.394 294.973C175.959 286.325 159.285 289.532 146.897 296.741C154.355 314.307 178.275 317.105 192.044 330.315C198.14 336.162 202.123 344.171 203.123 352.557C203.776 358.077 203.186 363.748 204.482 369.149C205.778 374.55 209.739 379.943 215.275 380.39C219.815 380.757 223.854 377.789 227.72 375.384C231.585 372.979 236.594 371.009 240.536 373.294C244.478 375.579 243.216 383.566 238.73 382.728C240.59 380.762 243.535 379.45 246.033 380.5C248.53 381.551 249.35 385.659 246.966 386.946C248.333 384.847 251.685 384.435 253.522 386.144C255.359 387.853 255.183 391.22 253.189 392.738C256.268 390.38 260.541 396.623 257.235 398.642C259.602 398.676 261.963 398.719 264.33 398.753C263.935 406.471 252.616 408.421 245.91 404.586C239.204 400.75 234.509 393.801 227.401 390.765C228.458 394.244 229.406 398.379 227.136 401.223C224.866 404.066 218.645 401.845 220.191 398.553C219.166 403.099 210.623 401.731 211.062 397.093C213.587 398.208 209.768 402.22 207.638 400.462C205.508 398.703 206.019 395.369 206.721 392.695C203.439 395.928 197.491 392.948 195.737 388.687C193.989 384.424 194.762 379.606 194.346 375.021C193.507 365.737 187.292 357.131 178.742 353.427C178.235 357.251 177.729 361.082 177.222 364.906C174.6 364.508 172.556 361.82 172.861 359.193C173.037 362.124 169.815 364.725 166.985 363.931C164.155 363.137 162.755 359.243 164.428 356.83C164.166 358.775 160.813 358.244 160.187 356.382C159.562 354.52 160.532 352.552 161.082 350.666C163.956 340.816 154.281 330.781 144.072 329.716C133.864 328.652 124.094 333.892 115.718 339.833C107.342 345.773 99.3484 352.688 89.5676 355.801C81.1413 339.276 72.7091 322.76 64.2828 306.235C58.1252 294.17 46.8491 279.33 45.5502 265.508C44.4768 254.009 52.7936 248.119 60.2559 240.879C70.4036 230.997 77.5959 218.431 79.2718 204.186Z" fill="#FFD1A6"/>
<path d="M49.9281 290.504C46.3545 276.845 50.2601 261.466 59.911 251.161C65.7027 244.976 73.2362 240.68 79.3599 234.821C85.4837 228.962 90.3153 220.498 88.3031 212.264C87.9198 210.699 87.3129 209.009 87.9851 207.552C89.2165 204.881 93.6933 205.79 94.9839 208.425C96.2818 211.06 95.4497 214.204 94.5982 217.014C96.8617 218.985 99.7382 215.363 100.544 212.478C105.575 194.587 110.605 176.697 115.637 158.815C116.961 154.118 118.32 149.323 121.097 145.308C123.873 141.293 128.357 138.13 133.239 138.254C131.612 142.657 129.984 147.06 128.357 151.464C132.342 149.434 136.326 147.396 140.311 145.366C139.655 149.41 138.288 153.341 136.299 156.919C140.748 158.66 145.139 154.32 147.585 150.224C150.03 146.12 152.878 141.179 157.644 140.904C157.2 148.179 154.168 155.271 149.217 160.624C142.925 167.421 133.998 171.178 127.15 177.409C120.303 183.64 115.867 194.67 121.491 202.02C122.429 203.246 123.643 204.319 125.113 204.781C126.502 205.222 128 205.089 129.428 204.825C140.883 202.71 149.28 192.696 154.351 182.208C159.422 171.72 162.21 160.178 168.015 150.074C169.313 147.82 171.154 145.406 173.756 145.31C175.24 145.256 176.634 145.995 178.092 146.283C182.164 147.079 186.228 144.122 188.083 140.41C189.938 136.698 190.09 132.392 190.212 128.245C190.55 131.727 195.777 132.672 198.474 130.442C201.163 128.207 201.879 124.434 202.421 120.979C210.002 124.436 217.391 116.39 224.857 112.689C238.331 106.018 256.754 113.373 268.36 103.819C256.366 112.062 243.038 118.345 229.048 122.343C224.811 123.557 219.668 125.469 219.14 129.848C225.208 125.073 233.431 123.162 240.98 124.771C232.781 131.106 223.069 135.469 212.887 137.395C217.209 138.219 221.523 139.036 225.845 139.86C211.465 150.004 190.509 150.325 179.634 164.158C184.468 165.21 189.656 164.546 194.068 162.31C187.034 167.55 180.761 173.822 175.519 180.857C173.056 184.159 170.761 188.601 172.796 192.18C175.856 197.549 184.364 194.587 188.405 189.91C192.446 185.233 196.178 178.9 202.353 178.617C212.79 178.15 217.179 195.305 227.627 195.127C233.461 195.026 237.506 189.39 240.064 184.146C242.624 178.908 245.243 172.916 250.672 170.787C258.266 167.812 267.271 174.116 274.77 170.892C278.622 169.241 281.378 165.275 285.498 164.521C293.208 163.118 300.069 173.689 307.353 170.821C311.67 169.116 312.933 163.788 315.153 159.713C317.374 155.638 323.754 152.61 326.183 156.563C322.613 158.987 319.437 162.452 318.741 166.719C318.045 170.986 320.687 175.908 324.951 176.552C318.22 178.921 310.958 179.754 303.862 178.968C298.692 178.395 293.257 177.016 288.436 178.965C283.616 180.921 280.846 188.291 285.091 191.298C284.055 192.934 281.538 192.876 279.891 191.865C278.245 190.855 277.114 189.191 275.673 187.895C271.658 184.299 265.003 184.124 260.809 187.513C256.615 190.902 255.383 197.442 258.064 202.128C259.928 205.387 263.252 207.525 265.669 210.4C268.087 213.275 269.45 217.843 266.941 220.641C262.376 217.367 257.812 214.1 253.247 210.827C250.328 217.789 255.663 226.828 263.171 227.64C253.021 226.327 240.315 227.338 236.003 236.62C231.584 246.13 239.411 256.55 246.679 264.114C244.226 270.48 231.064 267.718 230.512 274.523C230.153 278.985 236.165 280.764 240.636 280.631C245.108 280.498 251.008 281.005 251.994 285.371C250.249 287.414 247.193 287.653 244.526 287.302C229.739 285.357 219.32 267.736 224.758 253.843C225.744 251.328 227.162 248.866 227.139 246.165C227.087 240.505 220.739 235.918 221.858 230.365C222.18 228.762 223.125 227.251 222.953 225.629C222.544 221.825 217.112 221.357 213.471 222.522C208.235 224.192 202.85 227.646 201.854 233.044C200.329 241.289 209.748 248.807 207.814 256.964C206.82 261.159 202.998 264.215 201.859 268.376C200.796 272.255 202.244 276.401 201.739 280.392C201.234 284.384 196.717 288.434 193.519 285.996C192.096 284.911 191.64 283.015 190.956 281.364C188.944 276.494 184.065 272.944 178.811 272.526C172.458 272.016 166.477 275.709 160.11 276.03C150.999 276.497 142.416 270.042 133.368 271.225C130.29 271.629 126.815 273.72 127.062 276.821C127.36 280.686 132.52 281.598 136.387 281.859C140.254 282.12 145.32 284.706 143.947 288.332C143.263 290.121 141.229 290.964 139.354 291.369C134.56 292.401 129.598 291.833 124.696 291.882C119.794 291.931 114.589 292.744 110.899 295.965C107.208 299.187 105.887 305.469 109.272 309.012C113.079 312.994 119.573 311.369 125.025 310.569C135.589 309.027 146.739 312.045 155.08 318.709C160.686 323.189 165.841 329.55 173.01 329.77C166.666 332.316 159.591 328.668 154.152 324.531C148.713 320.394 143.222 315.408 136.405 314.913C130.909 314.511 125.703 317.156 120.835 319.727C108.23 326.373 95.6242 333.02 83.0262 339.665C80.9706 340.75 78.7689 341.871 76.4439 341.699C74.3223 341.547 72.4289 340.332 70.698 339.085C56.5723 328.903 46.104 313.767 41.553 296.958C41.4696 298.331 41.3846 299.696 41.3012 301.069" fill="#E8A261"/>
<path d="M103.842 225.317C115.682 208.744 114.454 183.552 130.811 171.419C132.773 169.969 135.439 168.757 137.552 169.96C139.019 170.799 139.698 172.543 140.037 174.193C141.437 181.099 138.689 188.074 137.019 194.922C135.35 201.771 135.128 209.983 140.272 214.806C142.346 196.177 145.585 175.405 160.553 164.119C159.936 176.845 159.31 189.565 158.693 202.291C158.531 205.649 160.595 210.547 163.529 208.899C164.605 208.29 165.03 206.981 165.316 205.783C167.456 196.957 168.427 185.84 176.814 182.38C175.902 188.949 177.162 195.806 180.348 201.626C187.414 180.985 208.328 168.756 228.289 159.955C248.25 151.154 269.992 143.115 283.113 125.686C269.115 162.804 215.15 170.292 198.211 206.164C226.013 173.834 269.58 160.169 302.944 133.623C318.773 121.019 333.122 105.049 352.614 99.6048C369.891 94.7784 391.61 97.7249 402.585 83.5433C400.215 93.9312 388.556 99.0743 378.132 101.286C367.707 103.498 356.072 104.851 348.913 112.744C361.663 102.491 380.207 109.607 396.554 110.243C409.951 110.766 423.485 106.313 433.967 97.9448C430.652 111.568 413.933 116.147 400.069 118.251C414.434 115.574 428.857 121.138 442.842 125.362C456.827 129.587 472.859 132.292 485.339 124.689C478.345 135.339 463.09 135.54 450.393 134.565C434.514 133.347 418.629 132.131 402.75 130.913C407.562 133.687 410.786 139.032 411.008 144.582C405.336 141.916 400.342 137.822 396.605 132.792C398.787 137.789 399.747 143.31 399.388 148.752C393.397 140.509 386.741 131.767 376.997 128.773C372.406 127.358 367.52 127.373 362.72 127.394C352.461 127.443 341.994 127.525 332.267 130.795C322.539 134.058 313.501 141.117 310.577 150.947C314.02 153.031 318.66 152.934 322.009 150.706C313.805 155.923 303.973 158.54 294.261 158.091C289.636 157.878 284.758 157.033 280.564 158.974C272.518 162.689 271.229 174.413 263.612 178.948C261.067 180.466 258.062 181.009 255.407 182.318C241.773 189.074 242.05 212.813 227.304 216.592C220.934 218.224 212.088 216.134 209.31 222.096C206.737 227.619 212.959 233.051 218.401 235.793C223.842 238.535 230.427 243.045 228.877 248.935C225.76 252.933 219.361 252.072 214.954 249.564C210.547 247.056 206.686 243.269 201.714 242.259C196.742 241.248 190.38 245.269 191.817 250.137C192.963 254.027 197.785 255.136 201.722 256.104C205.659 257.072 210.29 259.942 209.371 263.892C208.567 267.375 204.074 268.378 200.508 268.127C194.898 267.732 189.396 265.937 184.628 262.956C181.074 260.733 177.886 257.84 173.987 256.283C160.133 250.73 145.836 263.838 130.934 264.674C124.317 265.044 117.767 262.94 111.143 263.197C104.525 263.444 97.0888 267.338 96.4807 273.932C105.485 273.585 114.443 279.056 118.256 287.212C105.269 287.926 92.2385 287.867 79.2564 287.039C78.2863 286.977 77.2499 286.889 76.469 286.306C75.5088 285.59 75.1745 284.315 74.9062 283.141C71.7956 269.498 70.2033 260.63 79.802 249.316C87.131 240.692 97.4816 234.778 103.842 225.317Z" fill="#E37611"/>
<path d="M115.806 214.575C116.917 205.307 119.044 194.538 127.436 190.441C125.255 202.968 124.946 215.818 126.515 228.437C126.96 231.998 128.257 236.311 131.788 236.967C135.303 237.619 138.045 234.094 139.872 231.023C142.465 226.66 145.051 222.299 147.643 217.929C149.257 215.214 152.044 212.078 154.936 213.343C157.67 214.546 157.471 218.578 156.109 221.243C154.746 223.909 152.639 226.528 153.036 229.493C157.4 227.404 161.763 225.307 166.128 223.218C169.056 221.817 172.997 220.577 175.178 222.985C177.105 225.113 176.086 228.516 174.632 230.992C169.867 239.129 161.648 244.855 152.768 248.028C143.888 251.201 134.339 252.015 124.906 252.055C106.192 252.129 114.487 225.561 115.806 214.575Z" fill="#E8A261"/>
<path d="M256.787 298.017C258.825 305.878 263.746 312.96 270.404 317.609C271.078 318.075 271.788 318.533 272.59 318.675C275.392 319.168 277.345 315.804 277.517 312.966C277.877 307.14 274.707 301.677 270.976 297.183C269.34 295.212 267.509 293.295 265.156 292.277C262.803 291.259 259.823 291.338 257.94 293.071C256.057 294.804 255.97 298.346 258.138 299.714" fill="#E37611"/>
<path d="M334.008 197.543C340.404 196.672 346.192 193.362 352.422 191.643C357.774 190.173 363.451 189.895 368.919 190.854C380.846 192.946 392.68 200.742 404.156 196.853C393.616 194.918 384.713 187.299 374.105 185.8C365.681 184.615 357.289 187.425 349.024 189.435C340.759 191.446 331.549 192.546 324.152 188.348C323.013 187.698 321.872 186.918 320.561 186.837C314.71 186.505 320.648 193.77 322.317 195.053C325.44 197.46 330.216 198.056 334.008 197.543Z" fill="#E37611"/>
<path d="M165.564 356.095C166.81 356.785 168.449 355.959 169.15 354.725C169.851 353.492 169.864 351.995 169.853 350.572C170.124 352.971 170.388 355.372 170.658 357.771C172.886 358.07 174.103 355.211 174.199 352.962C174.295 350.713 174.326 347.941 176.333 346.919C177.81 346.17 179.592 346.855 181.053 347.626C186.149 350.321 190.645 354.145 194.106 358.746C196.477 357.899 196.109 354.461 195.284 352.086C194 348.392 192.691 344.641 190.426 341.452C188.161 338.264 184.769 335.657 180.882 335.254C176.213 334.774 169.777 337.009 167.021 340.851C165.396 343.116 162.909 354.631 165.564 356.095Z" fill="#E37611"/>
<path d="M99.4656 79.0413C103.841 80.1378 107.635 83.3482 109.442 87.4845C111.084 91.2471 111.097 95.5358 110.553 99.604C108.641 113.971 101.865 129.33 97.2128 142.931C88.1968 133.993 109.151 81.4649 99.4656 79.0413Z" fill="#002534"/>
<path d="M138.644 63.1562C138.365 68.2608 138.094 73.3712 137.815 78.4758C137.678 81.0236 137.492 83.7114 136.084 85.834C132.983 90.4955 126.306 91.7351 122.664 96.1806C120.345 99.0106 119.247 102.751 117.345 105.599C114.563 87.0633 131.429 77.4055 138.644 63.1562Z" fill="#002534"/>
<path d="M185.189 94.7164C189.471 91.5401 194.153 88.883 198.112 85.3102C202.071 81.7374 205.328 76.9689 205.602 71.6431C205.276 79.3622 202.341 86.9488 197.379 92.8714C194.834 95.9143 191.793 98.5026 188.66 100.933C184.595 104.082 176.023 112.421 171.379 109.254C174.416 103.517 179.964 98.591 185.189 94.7164Z" fill="#002534"/>
<path d="M344.484 163.336C342.871 164.687 341.628 166.478 340.936 168.46C340.513 169.662 340.298 170.992 340.675 172.213C341.448 174.667 344.462 175.815 346.986 175.359C349.516 174.901 351.649 173.273 353.666 171.674C351.502 173.692 347.647 172.088 346.399 169.397C345.153 166.714 345.695 163.574 346.268 160.672" fill="#002534"/>
<path d="M288.748 120.459C294.222 119.578 299.373 116.806 303.108 112.718C294.204 114.754 284.511 116.048 275.985 119.19C278.249 122.41 284.547 120.999 288.748 120.459Z" fill="#002534"/>
<path d="M326.687 98.2572C333.12 93.3491 338.495 87.0313 345.457 82.9083C350.002 80.2167 355.071 78.5566 360.092 76.9213C356.122 72.9713 349.353 74.206 344.483 76.9612C337.668 80.8179 332.655 86.8347 326.686 91.7594C320.459 96.8955 313.88 98.2077 307.306 101.726C309.474 109.661 322.948 101.113 326.687 98.2572Z" fill="#002534"/>
<path d="M290.722 74.854C300.222 66.9079 309.471 57.601 321.528 54.763C314.082 52.82 306.099 55.3729 299.613 59.5022C293.119 63.6256 287.736 69.2398 281.889 74.2402C273.777 81.1786 265.952 83.1643 256.377 86.4278C267.795 92.1365 282.321 81.8797 290.722 74.854Z" fill="#002534"/>
<path d="M147.126 339.394C148.925 340.987 149.994 343.238 150.789 345.496C152.782 351.166 153.287 357.496 151.329 363.183C149.369 368.862 144.735 373.762 138.903 375.204C137.456 375.564 135.302 375.128 135.433 373.647C139.624 374.58 143.57 371.102 145.629 367.334C147.534 363.842 148.549 359.751 147.791 355.846C145.059 341.868 128.744 352.145 126.541 345.911C123.421 337.066 142.851 335.603 147.126 339.394Z" fill="#002534"/>
<path d="M89.254 252.345C88.6326 248.275 87.1721 244.224 87.76 240.148C88.348 236.071 92.1347 232.01 96.0945 233.135C92.4536 217.412 88.8054 201.69 85.1646 185.967C93.1065 201.506 98.8955 218.141 102.333 235.253C108.107 226.75 102.562 214.955 105.271 205.045C106.829 199.345 110.976 194.778 113.891 189.632C124.095 171.632 118.848 147.442 130.554 130.382C128.268 151.948 125.975 173.524 123.688 195.091C123.37 198.081 123.076 201.234 124.318 203.971C125.559 206.709 128.914 208.734 131.625 207.436C132.441 204.916 133.265 202.394 134.083 199.881C135.587 200.866 137.09 201.852 138.601 202.835C146.888 187.372 155.484 171.526 168.882 160.203C170.262 159.036 171.74 157.858 172.432 156.19C173.735 153.061 171.851 149.629 170.555 146.496C169.259 143.363 168.979 138.92 172.005 137.392C172.134 142.079 174.217 146.683 177.66 149.862C180.244 149.049 182.039 146.246 181.695 143.554C188.705 145.345 194.829 138.628 201.81 136.708C212.972 133.647 224.208 143.276 235.706 141.889C234.474 146.352 229.231 148.46 224.602 148.494C219.973 148.528 215.389 147.15 210.771 147.519C208.244 147.723 205.513 148.411 203.288 147.185C201.869 146.397 200.772 144.865 199.155 144.707C196.311 144.429 195.189 148.91 197.125 151.005C199.061 153.101 202.256 153.295 205.111 153.356C200.492 152.744 195.621 152.166 191.31 153.946C188.31 155.177 185.874 157.448 183.504 159.667C178.093 164.743 172.682 169.819 167.278 174.893C162.3 179.562 157.001 184.861 156.357 191.662C156.176 193.552 156.318 195.646 155.112 197.116C153.752 198.778 151.299 198.891 149.303 199.695C144.142 201.787 142.846 209.835 147.091 213.432C141.256 215.679 135.193 217.311 129.02 218.307C130.109 224.492 132.056 230.516 134.797 236.171C135.97 238.6 138.794 241.318 140.881 239.614C141.535 239.08 141.845 238.237 142.33 237.545C144.389 234.597 148.978 235.024 152.135 236.742C155.299 238.459 158.023 241.136 161.534 241.927C166.466 243.045 171.323 240.146 175.553 237.371C183.389 232.234 191.615 226.66 195.507 218.135C197.121 214.6 198.202 210.342 201.616 208.485C203.451 207.49 205.62 207.41 207.684 207.112C215.37 205.981 222.102 201.543 228.646 197.357C235.189 193.17 242.172 188.997 249.927 188.527C257.681 188.057 266.306 192.574 267.772 200.21C258.629 190.193 240.333 191.028 232.134 201.822C230.349 204.172 228.97 206.91 226.612 208.682C220.647 213.162 211.051 209.709 205.41 214.592C202.837 216.828 201.766 220.28 200.309 223.362C195.814 232.879 187.061 239.552 178.624 245.849C171.17 251.41 163.351 257.142 154.19 258.722C144.153 260.452 132.067 257.549 125.018 264.907C123.484 266.502 122.368 268.468 120.747 269.974C115.185 275.141 107.172 272.964 100.385 273.443C91.8438 274.044 89.3573 278.248 82.9137 282.162C80.536 272.728 90.9079 263.209 89.254 252.345Z" fill="#002534"/>
<path d="M271.129 340.701C263.594 338.185 258.851 330.992 253.863 324.82C248.979 318.781 243.346 313.341 237.142 308.664C232.71 305.326 227.604 302.265 222.06 302.44C217.71 302.572 212.998 305.626 212.993 309.979C212.987 313.467 215.852 316.201 218.498 318.479C216.209 315.012 218.99 309.885 222.991 308.794C226.992 307.703 231.292 309.742 234.196 312.713C237.1 315.684 238.948 319.483 241.086 323.041C245.168 329.835 250.429 335.915 256.568 340.926C261.438 344.899 267.05 348.274 273.269 349.155C279.487 350.036 286.401 347.976 290.068 342.874C292.284 339.789 293.263 335.635 292.151 332.075C287.718 338.975 279.336 343.437 271.129 340.701Z" fill="#002534"/>
<path d="M370.211 231.934C375.201 234.872 381.201 236.906 386.763 235.295C382.625 236.037 379.806 231.471 377.138 228.216C371.981 221.924 363.791 219.154 356.042 216.68C351.431 215.208 339.781 211.009 335.637 215.553C331.197 220.423 334.804 220.528 338.424 221.328C343.453 222.435 347.845 219.627 353.518 221.673C359.67 223.893 364.64 228.65 370.211 231.934Z" fill="#002534"/>
<path d="M182.649 303.842C178.826 297.319 169.902 294.363 162.939 297.307C160.788 298.219 158.67 301.017 160.389 302.596C160.912 303.075 161.649 303.237 162.35 303.376C169.589 304.846 176.818 306.311 184.057 307.781C184.019 304.225 181.147 300.911 177.629 300.359" fill="#002534"/>
<path d="M194.575 162.003C201.998 163.476 209.885 162.466 216.697 159.185C217.866 158.619 219.207 157.521 218.738 156.302C218.515 155.71 217.924 155.358 217.364 155.077C209.925 151.371 199.986 153.717 194.996 160.358C195.903 162.44 199.854 161.214 199.424 158.984" fill="#E37611"/>
<path d="M245.447 135.719C239.613 132.342 231.516 133.53 226.893 138.444C226.088 139.299 225.345 140.555 225.909 141.594C226.426 142.55 227.719 142.696 228.804 142.682C234.969 142.623 241.117 141.304 246.763 138.833C247.665 138.434 248.721 137.721 248.532 136.755C248.455 136.364 248.177 136.042 247.886 135.77C246.089 134.107 243.246 133.714 241.065 134.823" fill="#E37611"/>
<path d="M201.695 381.244C200.064 383.357 199.835 386.451 201.127 388.781C201.374 389.222 201.698 389.665 202.175 389.832C203.644 390.364 204.559 388.192 205.926 387.426C207.667 386.457 209.912 388.216 210.185 390.193C210.465 392.169 209.459 394.075 208.489 395.813C210.742 396.904 213.821 394.982 213.829 392.483C214.1 394.414 215.217 396.203 216.82 397.306C217.77 396.132 218.729 394.963 219.679 393.788C220.226 394.861 220.766 395.935 221.314 397.008C224.124 395.201 222.927 390.462 220.103 388.678C217.278 386.895 213.707 387.012 210.389 386.62C207.071 386.229 203.358 384.88 202.25 381.725C200.919 382.446 199.894 383.704 199.458 385.154" fill="#E37611"/>
<path d="M244.624 388.876C245.286 389.865 245.033 391.355 244.085 392.07C245.479 391.827 246.878 391.576 248.271 391.334C248.8 392.786 248.525 394.51 247.569 395.732C248.524 394.426 250.682 394.256 251.831 395.387C252.98 396.518 252.844 398.675 251.557 399.655C252.99 399.696 254.414 400.237 255.519 401.147C255.188 402.859 253.147 403.781 251.424 403.513C243.509 402.267 222.124 378.657 241.514 385.478C240.782 386.28 240.234 388.097 239.199 389.073C239.624 389.166 244.654 388.909 244.624 388.876Z" fill="#E37611"/>
<path d="M129.611 299.953C126.542 299.697 123.472 299.44 120.403 299.183C119.055 299.072 117.527 299.019 116.555 299.96C115.454 301.027 115.666 302.97 116.66 304.131C117.661 305.291 119.213 305.822 120.717 306.102C126.322 307.142 132.394 305.278 136.459 301.27C133.334 298.894 129.516 297.435 125.6 297.122" fill="#E37611"/>
<path d="M415.069 164.484C408.313 162.659 402.402 168.982 404.578 175.628C406.817 182.477 416.061 183.117 420.044 177.517C420.519 176.849 420.731 176.171 420.75 175.524C422.36 171.07 420.125 165.846 415.069 164.484Z" fill="#002534"/>
</svg>
