<svg width="236" height="182" viewBox="0 0 236 182" fill="none" xmlns="http://www.w3.org/2000/svg">
<path d="M74.0666 42.8777C52.0717 58.7387 27.6578 75.7005 0.639923 73.426C32.0789 83.7104 67.2656 82.1092 97.6358 69.0345C83.2153 82.2565 67.6735 97.9225 67.82 117.501C67.989 139.784 88.954 159.848 83.3796 181.413C104 170.407 120.003 151.036 126.915 128.71C132.816 109.689 132.603 88.2817 143.677 71.7266C144.751 70.1193 146.033 68.5006 147.881 67.9578C151.677 66.8554 154.86 70.7011 157.653 73.5016C167.408 83.2779 183.439 83.1222 196.679 79.1626C209.919 75.203 222.293 68.1728 235.975 66.226C208.759 50.6 176.364 12.0069 146.752 2.13831C121.561 -6.24584 93.1202 29.1218 74.0505 42.8714L74.0666 42.8777Z" fill="#EEF4F6"/>
</svg>
