<svg width="2066.488281" height="623.271973" viewBox="0 0 2066.49 623.272" fill="none" xmlns="http://www.w3.org/2000/svg" xmlns:xlink="http://www.w3.org/1999/xlink">
	<desc>
			Created with Pixso.
	</desc>
	<defs/>
	<path id="Vector 2" d="M41.36 54.42C165.66 14.36 262.17 4.13 381.14 111.21C500.12 218.29 545.48 241.09 674.69 262.68C803.9 284.28 813.64 183.51 938.9 204.45C1064.17 225.38 1115.25 329.23 1209.35 378.92C1303.43 428.61 1333.23 381.35 1451.96 329.21C1570.68 277.07 1707.73 392.97 1739.52 425.54C1777.52 464.46 1811.61 566.78 2036.37 517.16" stroke="#EEF4F6" stroke-opacity="1.000000" stroke-width="11.000000"/>
	<path id="Vector 3" d="M34.18 89.69C158.48 49.64 254.99 39.41 373.96 146.49C492.94 253.57 538.3 276.36 667.51 297.96C796.71 319.56 806.46 218.78 931.72 239.72C1056.99 260.66 1108.06 364.5 1202.16 414.2C1296.26 463.89 1326.05 416.62 1444.77 364.48C1563.49 312.34 1700.55 428.25 1732.34 460.81C1770.33 499.74 1804.43 602.06 2029.19 552.44" stroke="#EEF4F6" stroke-opacity="1.000000" stroke-width="11.000000"/>
	<path id="Vector 4" d="M26.79 125.95C151.1 85.9 247.61 75.67 366.58 182.75C485.56 289.83 530.92 312.62 660.13 334.22C789.33 355.81 799.08 255.04 924.34 275.98C1049.61 296.92 1100.68 400.76 1194.78 450.45C1288.88 500.15 1318.67 452.88 1437.39 400.74C1556.11 348.6 1693.17 464.5 1724.96 497.07C1762.95 536 1797.05 638.32 2021.81 588.69" stroke="#EEF4F6" stroke-opacity="1.000000" stroke-width="11.000000"/>
	<circle id="Ellipse 1" r="14.000000" transform="matrix(0.979901 0.199486 -0.199486 0.979901 293.954 192.488)" fill="#EEF4F6" fill-opacity="1.000000"/>
	<circle id="Ellipse 2" r="8.000000" transform="matrix(0.979901 0.199486 -0.199486 0.979901 315.061 214.133)" fill="#EEF4F6" fill-opacity="1.000000"/>
	<circle id="Ellipse 3" cx="731.000000" cy="200.000000" r="14.000000" fill="#EEF4F6" fill-opacity="1.000000"/>
	<circle id="Ellipse 4" cx="701.000000" cy="200.000000" r="10.000000" fill="#EEF4F6" fill-opacity="1.000000"/>
	<circle id="Ellipse 11" cx="1823.000000" cy="409.000000" r="10.000000" fill="#EEF4F6" fill-opacity="1.000000"/>
	<circle id="Ellipse 9" cx="1278.000000" cy="347.000000" r="10.000000" fill="#EEF4F6" fill-opacity="1.000000"/>
	<circle id="Ellipse 7" cx="968.000000" cy="321.000000" r="10.000000" fill="#EEF4F6" fill-opacity="1.000000"/>
	<circle id="Ellipse 12" cx="1856.000000" cy="429.000000" r="10.000000" fill="#EEF4F6" fill-opacity="1.000000"/>
	<circle id="Ellipse 5" cx="711.500000" cy="219.500000" r="5.500000" fill="#EEF4F6" fill-opacity="1.000000"/>
	<circle id="Ellipse 10" cx="1305.500000" cy="331.500000" r="5.500000" fill="#EEF4F6" fill-opacity="1.000000"/>
	<circle id="Ellipse 6" cx="978.500000" cy="341.500000" r="5.500000" fill="#EEF4F6" fill-opacity="1.000000"/>
	<circle id="Ellipse 13" cx="1838.500000" cy="444.500000" r="5.500000" fill="#EEF4F6" fill-opacity="1.000000"/>
	<circle id="Ellipse 8" cx="950.500000" cy="323.500000" r="3.500000" fill="#EEF4F6" fill-opacity="1.000000"/>
</svg>
