<svg width="564" height="444" viewBox="0 0 564 444" fill="none" xmlns="http://www.w3.org/2000/svg">
<path d="M138.907 127.007C138.808 126.442 138.627 125.894 138.336 125.378C138.16 125.066 137.924 124.802 137.644 124.599C136.177 123.02 133.826 122.477 131.744 123.579C129.316 124.868 128.212 127.923 129.624 130.375C130.991 132.744 134.194 133.802 136.589 132.311C137.6 131.68 138.308 130.737 138.682 129.678C139.006 128.844 139.088 127.923 138.902 127.018L138.907 127.007Z" fill="#FFB800"/>
<path d="M111.532 22.1001C110.082 16.8601 105.232 16.5701 100.582 16.8001C100.062 16.8301 99.5424 16.8501 99.0124 16.8801C98.9324 14.2301 98.8524 11.5801 98.7724 8.92013C98.6024 3.49013 90.1824 1.88013 88.9524 7.59013C88.2924 10.6601 87.8624 13.7301 87.6324 16.8001C84.6424 16.8101 81.6424 17.1601 78.6224 18.0101C73.3224 19.5001 74.1824 28.1201 79.9524 27.8301C80.2024 27.8201 80.4524 27.8001 80.7024 27.7901C80.8524 27.8401 80.9924 27.9001 81.1524 27.9501C83.1924 28.4701 85.2324 28.8901 87.2824 29.2201C87.1624 32.0401 87.2824 34.6601 88.6024 37.4301C89.1924 38.6701 90.2324 39.3901 91.4024 39.6801C94.5224 41.3001 99.4024 38.9301 98.8724 34.5801C99.3024 33.1501 99.4124 31.6101 99.4124 30.0401C101.172 29.9901 102.932 29.8901 104.712 29.7001C105.932 29.5701 106.952 29.0501 107.752 28.3401C107.852 28.3101 107.952 28.2801 108.052 28.2501C110.612 27.4001 112.292 24.8201 111.542 22.1001H111.532Z" fill="#FFB800"/>
<path d="M480.223 74.4987C478.033 74.3087 475.853 74.1987 473.673 74.1387C473.733 71.3987 473.583 68.5887 472.433 66.3087C471.713 62.5387 467.873 60.9487 464.943 62.7287C463.833 63.0187 462.783 63.6287 461.943 64.5587C459.653 67.1087 459.843 70.9887 460.303 74.5787C458.503 74.7387 456.713 74.9387 454.913 75.1787C454.883 75.1787 454.843 75.1787 454.813 75.1787C454.313 75.1887 453.863 75.2687 453.443 75.3887C452.823 75.4787 452.203 75.5587 451.583 75.6587C447.123 76.3787 447.133 81.8787 449.933 84.3187C450.803 85.8187 452.423 86.9187 454.303 86.9987C456.213 87.0787 458.113 87.1087 460.013 87.1187C460.003 88.5987 460.133 89.9787 460.643 91.3087C461.073 93.9587 462.013 96.3988 463.783 98.3688C465.763 100.569 468.813 100.129 470.703 98.3688C471.743 97.7887 472.593 96.8287 472.993 95.4587C473.843 92.5487 474.363 89.6087 474.553 86.6487C476.083 86.4287 477.563 86.1687 478.873 85.9887C479.303 85.9387 479.733 85.8887 480.163 85.8387C483.083 85.4587 484.693 83.0987 484.913 80.7587C485.493 78.0487 483.903 74.7887 480.223 74.4687V74.4987Z" fill="#FFB800"/>
<path d="M559.415 141.699C555.515 138.869 550.185 139.729 546.915 143.129C543.175 147.029 542.895 153.389 546.885 157.209C546.995 157.319 547.115 157.409 547.235 157.509C548.285 158.489 549.555 159.269 550.985 159.709C554.185 160.699 557.645 159.929 560.195 157.959C560.515 157.729 560.825 157.489 561.125 157.229C561.425 156.959 561.665 156.649 561.865 156.319C562.525 155.499 563.055 154.579 563.415 153.549C564.935 149.239 563.025 144.329 559.415 141.709V141.699Z" fill="#FFB800"/>
<path d="M18.5131 204.845C18.3031 202.985 17.5331 201.195 16.1631 199.795C13.6731 197.255 9.72306 196.345 6.36306 197.485C-1.49694 200.135 -2.19694 211.355 4.94306 215.325C8.76306 217.445 13.8631 217.025 17.1031 214.015C19.8631 211.455 20.1931 207.635 18.5131 204.845Z" fill="#FFB800"/>
<path d="M48.4757 215.993C48.3682 215.046 47.9741 214.135 47.2729 213.422C45.9984 212.13 43.9766 211.667 42.2569 212.247C38.2338 213.596 37.8755 219.306 41.5301 221.326C43.4853 222.405 46.0957 222.192 47.754 220.66C49.1667 219.357 49.3356 217.413 48.4757 215.993Z" fill="#FFB800"/>
<path d="M202.167 427.747C202.167 427.747 202.087 427.677 202.047 427.637C202.037 427.617 202.027 427.587 202.017 427.567C200.987 425.807 198.787 424.817 196.797 425.157C196.347 425.107 195.887 425.087 195.427 425.107C195.227 425.077 195.027 425.057 194.827 425.037C193.877 424.957 192.927 424.997 191.987 425.237C190.327 425.677 188.827 426.617 187.617 427.837C184.817 430.667 184.167 435.207 186.137 438.677C190.007 445.467 200.137 445.337 203.747 438.377C205.527 434.947 204.877 430.517 202.167 427.747Z" fill="#FFB800"/>
<path d="M487.843 336.853C485.483 336.573 483.013 337.183 481.103 338.863C476.643 342.793 477.103 349.793 481.763 353.333C487.043 357.343 495.093 354.973 497.133 348.553C499.073 342.433 493.863 336.523 487.853 336.853H487.843Z" fill="#FFB800"/>
<path d="M502.601 318.074C502.401 317.454 502.051 316.914 501.571 316.464C501.121 315.974 500.581 315.634 499.961 315.434C499.361 315.124 498.721 314.974 498.031 315.004C497.591 315.064 497.141 315.124 496.701 315.184C495.851 315.424 495.121 315.854 494.491 316.474C494.231 316.814 493.971 317.144 493.711 317.484C493.261 318.264 493.031 319.104 493.031 320.004V321.024C493.001 321.714 493.151 322.354 493.461 322.954C493.661 323.574 494.011 324.114 494.491 324.564C494.941 325.054 495.481 325.394 496.101 325.594C496.701 325.904 497.341 326.054 498.031 326.024C498.471 325.964 498.921 325.904 499.361 325.844C500.211 325.604 500.941 325.174 501.571 324.554C501.831 324.214 502.091 323.884 502.351 323.544C502.801 322.764 503.031 321.924 503.031 321.024V320.004C503.061 319.314 502.911 318.674 502.601 318.074Z" fill="#FFB800"/>
<path d="M128.744 0C122.314 0 122.294 10 128.744 10C135.194 10 135.194 0 128.744 0Z" fill="#FFB800"/>
<path d="M90.8217 10.5601C90.9117 9.69015 91.0417 8.72015 91.7117 8.15015C92.7317 7.28015 94.4417 7.95015 95.1017 9.12015C95.7617 10.2901 95.6617 11.7201 95.5217 13.0601C95.3817 14.4001 95.2217 15.8101 95.7717 17.0301C96.4617 18.5601 98.1117 19.4401 99.7517 19.7901C101.392 20.1402 103.092 20.0701 104.752 20.3001C105.682 20.4301 106.832 20.9701 106.712 21.9001C106.672 22.2401 106.452 22.5201 106.222 22.7701C104.392 24.7101 101.322 24.9201 98.7317 24.2801C97.8717 24.0702 96.7817 23.8601 96.2717 24.5801C96.0617 24.8701 96.0217 25.2501 95.9917 25.6101C95.7517 28.3001 95.5817 31.1701 93.9817 33.3501C93.7617 33.6501 93.4317 33.9701 93.0617 33.8801C92.7417 33.8001 92.5817 33.4601 92.4617 33.1601C91.2517 30.0901 90.4917 26.8501 90.2217 23.5601C87.0017 25.3601 82.7617 25.1301 79.7617 23.0001C80.0117 21.8001 81.3917 21.2601 82.5817 20.9501C84.6517 20.4101 88.2317 20.4201 89.5917 18.5001C90.9517 16.5801 90.6017 12.7701 90.8317 10.5601H90.8217Z" fill="#E37611"/>
<path d="M469.134 68.7488C470.164 69.7588 470.474 71.3288 470.294 72.7588C470.114 74.1888 469.494 75.5188 468.884 76.8288C472.134 76.5188 475.464 77.1388 478.384 78.5888C478.674 78.7288 478.994 78.9288 479.054 79.2488C479.104 79.5188 478.964 79.7888 478.794 79.9988C477.334 81.9288 474.524 82.1588 472.114 81.9288C471.684 81.8888 471.214 81.8488 470.844 82.0688C470.494 82.2788 470.324 82.6888 470.184 83.0688C469.764 84.2488 469.544 85.4888 469.524 86.7388C469.504 88.1988 469.734 89.7288 469.144 91.0688C468.554 92.4088 466.604 93.2388 465.614 92.1588C465.254 91.7688 465.114 91.2288 465.004 90.7088C464.634 88.9788 464.434 87.2088 464.424 85.4388C464.424 85.1688 464.424 84.8888 464.284 84.6588C464.024 84.2288 463.424 84.1888 462.914 84.1788C460.134 84.1488 457.354 83.7188 454.684 82.9088C454.414 82.8288 454.144 82.7388 453.934 82.5488C451.454 80.2988 458.754 79.3788 459.524 79.1788C461.224 78.7388 462.454 78.1088 463.154 76.4388C464.024 74.3688 464.394 64.0188 469.124 68.7488H469.134Z" fill="#E37611"/>
</svg>
